<?xml version="1.0" standalone="no"?> <!DOCTYPE svg PUBLIC "-//W3C//DTD SVG 1.0//EN" "../../../www.w3.org/TR/2001/REC-SVG-20010904/DTD/svg10.dtd" > <svg xmlns="http://www.w3.org/2000/svg" width="100%" height="100%">
<defs >
<font id="myriadproregular" horiz-adv-x="854" ><font-face
    font-family="Myriad Pro"
    units-per-em="2048"
    panose-1="2 11 5 3 3 4 3 2 2 4"
    ascent="1536"
    descent="-512"
    alphabetic="0" />
<missing-glyph horiz-adv-x="1024" d="M0 0V1434H1024V0H0ZM512 809L860 1331H164L512 809ZM573 717L922 195V1239L573 717ZM164 102H860L512 625L164 102ZM102 1239V195L451 717L102 1239Z" />
<glyph unicode=" " glyph-name="space" horiz-adv-x="434" />
<glyph unicode="!" glyph-name="exclam" horiz-adv-x="471" d="M305 395H166L137 1380H334L305 395ZM236 -23H233Q182 -23 149 13T115 104Q115 159 149 195T236 231Q290 231 323 196T356 104Q356 50 323 14T236 -23Z" />
<glyph unicode="&quot;" glyph-name="quotedbl" horiz-adv-x="690" d="M104 1417H281L248 926H137L104 1417ZM410 1417H586L553 926H442L410 1417Z" />
<glyph unicode="#" glyph-name="numbersign" horiz-adv-x="1017" d="M385 522H598L637 819H424L385 522ZM315 0H193L246 401H76V522H264L303 819H125V940H319L373 1331H494L440 940H655L707 1331H827L776 940H944V819H758L721 522H897V401H702L649 0H526L580 401H367L315
0Z" />
<glyph unicode="$" glyph-name="dollar" horiz-adv-x="1050" d="M575 -176H446V31Q359 32 275 57T135 121L184 258Q313 170 475 170Q585 170 653 226T721 371Q721 452 664 509T489 614Q321 680 237 762T152 971Q152 1099 235 1188T459 1300V1505H588V1307Q741
1302 854 1235L803 1100Q676 1171 545 1171Q436 1171 382 1118T328 993Q328 918 384 869T582 760Q745 693 822 607T899 387Q899 259 814 161T575 37V-176Z" />
<glyph unicode="%" glyph-name="percent" horiz-adv-x="1622" d="M383 1354H385Q525 1354 607 1249T690 956Q690 756 600 648T373 539Q240 539 151 643T61 938Q61 1131 152 1242T383 1354ZM377 1245H375Q294 1245 249 1160T203 944Q200 815 247 731T377 647Q463
647 506 728T549 948Q549 1080 507 1162T377 1245ZM473 -25H358L1143 1356H1257L473 -25ZM1251 803H1253Q1394 803 1476 700T1559 408Q1559 205 1469 96T1241 -14Q1108 -14 1020 91T930 387Q930 582 1021 692T1251 803ZM1245 694H1243Q1163 694 1117 610T1071 395Q1068
265 1115 180T1245 94Q1331 94 1374 176T1417 399Q1417 531 1375 612T1245 694Z" />
<glyph unicode="&amp;" glyph-name="ampersand" horiz-adv-x="1239" d="M1233 0H1020L891 133Q719 -23 487 -23Q293 -23 178 90T63 365Q63 620 334 768V774Q217 924 217 1063Q217 1127 240 1187T307 1295T418 1373T569 1403Q701 1403 787 1323T874 1110Q874 999
803 910T571 741V735L907 350Q1001 490 1040 754H1204Q1145 409 1006 244L1233 0ZM518 113H520Q688 113 803 238L416 672Q238 562 238 391Q238 271 316 192T518 113ZM557 1280H555Q474 1280 429 1222T383 1079Q383 1012 410 954T487 831Q604 897 660 958T717 1102Q717
1173 677 1226T557 1280Z" />
<glyph unicode="&apos;" glyph-name="quotesingle" horiz-adv-x="385" d="M104 1417H281L248 926H137L104 1417Z" />
<glyph unicode="(" glyph-name="parenleft" horiz-adv-x="581" d="M399 1421H539Q283 1076 283 582Q283 116 539 -248H399Q131 105 131 584Q133 1067 399 1421Z" />
<glyph unicode=")" glyph-name="parenright" horiz-adv-x="581" d="M180 -248H41Q297 115 297 588T41 1421H180Q449 1071 449 588Q445 110 180 -248Z" />
<glyph unicode="*" glyph-name="asterisk" horiz-adv-x="849" d="M551 1403L674 1331L479 1077V1073L788 1114V975L479 1012V1008L676 760L547 688L422 975H418L287 686L170 760L365 1010V1014L61 975V1114L362 1075V1079L170 1331L295 1401L422 1116H426L551 1403Z" />
<glyph unicode="+" glyph-name="plus" horiz-adv-x="1220" d="M545 1090H676V608H1139V485H676V0H545V485H82V608H545V1090Z" />
<glyph unicode="," glyph-name="comma" horiz-adv-x="423" d="M160 -240L33 -254Q67 -161 103 -18T156 238L356 258Q320 129 262 -19T160 -240Z" />
<glyph unicode="-" glyph-name="hyphen" horiz-adv-x="628" d="M61 618H567V487H61V618Z" />
<glyph unicode="." glyph-name="period" horiz-adv-x="423" d="M227 -23H225Q174 -23 140 14T106 106Q106 162 141 199T229 236Q283 236 316 200T350 106Q350 50 316 14T227 -23Z" />
<glyph unicode="../../default.htm" glyph-name="slash" horiz-adv-x="702" d="M135 -82H-2L567 1403H709L135 -82Z" />
<glyph unicode="0" glyph-name="zero" horiz-adv-x="1050" d="M518 -23H516Q317 -23 197 157T74 662Q74 990 202 1172T539 1354Q747 1354 863 1176T979 680Q979 342 858 160T518 -23ZM524 117H526Q660 117 728 263T797 672Q797 927 730 1070T526 1214Q403 1214
330 1068T256 672Q253 414 326 266T524 117Z" />
<glyph unicode="1" glyph-name="one" horiz-adv-x="1050" d="M483 0V1163H479L248 1038L213 1176L504 1331H657V0H483Z" />
<glyph unicode="2" glyph-name="two" horiz-adv-x="1050" d="M942 0H92V111L233 248Q374 382 456 467T606 639T701 798T729 944Q729 997 716 1042T673 1124T592 1183T467 1204Q320 1204 184 1092L127 1219Q200 1279 297 1316T504 1354Q606 1354 686 1321T813 1231T885
1108T909 967Q909 877 879 792T783 616T643 446T451 252L346 154V150H942V0Z" />
<glyph unicode="3" glyph-name="three" horiz-adv-x="1050" d="M86 68L135 205Q185 175 265 149T430 123Q512 123 573 147T668 210T716 292T731 381Q730 448 701 500T623 584T514 631T387 647H287V782H387Q457 782 522 804T636 880T684 1008Q684 1094 626 1151T451
1208Q377 1208 306 1182T184 1120L135 1251Q194 1294 289 1324T485 1354Q580 1354 655 1328T775 1256T843 1154T866 1036Q866 930 803 848T621 721V717Q749 693 833 602T918 377Q918 296 886 225T795 98T642 10T432 -23Q329 -23 236 4T86 68Z" />
<glyph unicode="4" glyph-name="four" horiz-adv-x="1050" d="M819 0H649V365H31V481L625 1331H819V504H1006V365H819V0ZM213 504H649V948Q649 1052 655 1157H649Q603 1069 539 961L213 508V504Z" />
<glyph unicode="5" glyph-name="five" horiz-adv-x="1050" d="M887 1331V1180H379L328 838Q388 846 436 846Q603 846 723 774Q807 728 860 640T913 432Q913 236 774 107T418 -23Q316 -23 229 1T86 59L131 197Q180 168 257 146T418 123Q549 123 640 203T731 414Q731
548 636 627T350 707Q256 707 164 692L250 1331H887Z" />
<glyph unicode="6" glyph-name="six" horiz-adv-x="1050" d="M852 1352V1204Q799 1207 717 1194Q613 1178 529 1133T390 1024T300 884T254 723H258Q310 792 393 835T582 879Q759 879 871 760T983 449Q983 324 931 218T776 44T539 -23Q326 -23 198 131T70 545Q70
735 130 888T295 1145Q465 1311 721 1341Q786 1352 852 1352ZM541 117H543Q658 117 729 205T801 436T727 659T526 741Q445 741 374 697T266 578Q248 540 248 500Q250 330 326 224T541 117Z" />
<glyph unicode="7" glyph-name="seven" horiz-adv-x="1050" d="M117 1331H956V1212L377 0H193L768 1178V1182H117V1331Z" />
<glyph unicode="8" glyph-name="eight" horiz-adv-x="1050" d="M537 1354H539Q633 1354 708 1327T831 1253T903 1149T928 1026Q928 933 875 851T707 715V709Q834 658 904 570T975 365Q975 192 846 85T522 -23Q320 -23 198 81T76 336Q76 459 144 550T338 694V700Q230
750 178 829T125 999Q125 1156 242 1255T537 1354ZM524 109H526Q646 109 719 175T793 346Q793 460 719 528T500 637Q385 604 323 531T260 360Q255 257 328 183T524 109ZM530 1225H528Q421 1225 359 1164T297 1012Q294 834 551 766Q642 797 698 859T754 1008Q754
1097 698 1161T530 1225Z" />
<glyph unicode="9" glyph-name="nine" horiz-adv-x="1050" d="M197 -20V127Q257 124 342 135Q507 154 621 262Q761 393 797 616H791Q673 473 475 473Q299 473 191 590T82 883Q82 1008 138 1115T300 1288T539 1354Q742 1354 860 1202T979 793Q979 584 917 427T750
168Q673 95 572 49T362 -10Q250 -24 197 -20ZM524 1217H522Q409 1217 336 1126T262 893Q262 767 332 689T518 610Q605 610 674 648T782 750Q797 777 797 815Q799 995 730 1106T524 1217Z" />
<glyph unicode=":" glyph-name="colon" horiz-adv-x="423" d="M229 700H227Q176 700 143 736T109 827Q109 884 143 920T229 956Q284 956 317 921T350 827Q350 773 317 737T229 700ZM229 -23H227Q176 -23 143 13T109 104Q109 161 143 197T229 233Q284 233 317 198T350
104Q350 50 317 14T229 -23Z" />
<glyph unicode=";" glyph-name="semicolon" horiz-adv-x="423" d="M160 -240L35 -252Q69 -161 105 -18T158 238L356 258Q320 129 262 -19T160 -240ZM244 700H242Q190 700 157 736T123 827Q123 884 157 920T244 956Q298 956 331 920T365 827Q365 773 332 737T244 700Z" />
<glyph unicode="&lt;" glyph-name="less" horiz-adv-x="1220" d="M135 489V600L1085 1090V948L285 547V543L1085 141V0L135 489Z" />
<glyph unicode="=" glyph-name="equal" horiz-adv-x="1220" d="M1139 690H82V813H1139V690ZM1139 289H82V412H1139V289Z" />
<glyph unicode="&gt;" glyph-name="greater" horiz-adv-x="1220" d="M1085 604V487L135 0V141L942 543V547L135 948V1090L1085 604Z" />
<glyph unicode="?" glyph-name="question" horiz-adv-x="831" d="M449 393H289L285 444Q264 622 412 799Q487 889 521 951T555 1079Q555 1160 505 1207T360 1255Q303 1255 247 1239T154 1192L104 1321Q155 1359 235 1382T397 1405Q482 1405 549 1380T657 1311T718
1215T739 1102Q739 1008 695 929T563 748Q496 667 469 595T446 444L449 393ZM367 -23H365Q313 -23 280 13T246 104Q246 161 280 197T367 233Q421 233 454 197T487 104Q487 50 454 14T367 -23Z" />
<glyph unicode="@" glyph-name="at" horiz-adv-x="1509" d="M920 522L963 752Q921 768 860 768Q724 768 628 659T532 399Q532 329 567 287T668 244Q752 244 827 332T920 522ZM1040 -45L1073 -133Q920 -215 709 -215Q583 -215 470 -170T273 -44T138 160T88 426Q88
584 141 727T290 977T528 1148T836 1212Q967 1212 1078 1168T1267 1045T1387 858T1430 621Q1430 398 1324 266T1067 133Q1000 133 956 178T915 313H909Q800 133 618 133Q526 133 462 203T397 391Q397 518 458 629T632 808T883 877Q1011 877 1102 834L1034 463Q991
238 1094 233Q1178 230 1246 334T1315 606Q1315 836 1184 977T819 1118Q694 1118 582 1070T387 935T254 719T205 438Q205 185 352 34T731 -117Q909 -117 1040 -45Z" />
<glyph unicode="A" glyph-name="A" horiz-adv-x="1253" d="M868 434H379L236 0H51L520 1380H735L1206 0H1016L868 434ZM416 573H831L694 971Q663 1069 625 1223H618Q587 1084 551 973L416 573Z" />
<glyph unicode="B" glyph-name="B" horiz-adv-x="1110" d="M156 4V1360Q289 1391 481 1391Q737 1391 858 1290Q975 1204 975 1047Q975 945 912 864T741 743V737Q793 725 841 699T932 631T1000 528T1026 393Q1026 228 907 117Q769 -12 432 -12Q274 -12 156 4ZM334
1241V795H496Q633 795 713 860T793 1028Q793 1143 714 1198T492 1253Q390 1253 334 1241ZM334 662V135Q383 127 483 127Q556 127 617 141T729 185T809 269T838 395Q838 528 738 595T481 662H334Z" />
<glyph unicode="C" glyph-name="C" horiz-adv-x="1187" d="M1083 188L1118 45Q1066 18 969 -1T754 -20Q607 -20 484 26T269 158T126 378T74 678Q74 838 127 973T274 1202T502 1348T795 1401Q999 1401 1122 1341L1077 1194Q965 1251 801 1251Q555 1251 409 1101T262
684Q262 428 402 280T791 131Q964 131 1083 188Z" />
<glyph unicode="D" glyph-name="D" horiz-adv-x="1363" d="M154 4V1362Q353 1391 535 1391Q908 1391 1094 1219Q1290 1042 1290 723Q1290 384 1092 186Q891 -12 479 -12Q277 -12 154 4ZM334 1231V139Q379 131 514 131Q798 130 950 283T1102 717Q1104 967 962 1108T543
1249Q419 1249 334 1231Z" />
<glyph unicode="E" glyph-name="E" horiz-adv-x="1007" d="M868 795V647H334V150H932V0H154V1380H901V1231H334V795H868Z" />
<glyph unicode="F" glyph-name="F" horiz-adv-x="997" d="M154 0V1380H897V1231H334V772H854V625H334V0H154Z" />
<glyph unicode="G" glyph-name="G" horiz-adv-x="1323" d="M1208 725V61Q1008 -14 782 -14Q456 -14 266 168Q176 255 125 389T74 682Q74 836 126 967T273 1193T509 1341T821 1395Q931 1395 1023 1376T1167 1331L1122 1186Q999 1245 817 1245Q563 1245 413 1097T262
690Q262 430 406 282T795 133Q956 133 1032 170V582H754V725H1208Z" />
<glyph unicode="H" glyph-name="H" horiz-adv-x="1335" d="M154 1380H334V803H1001V1380H1182V0H1001V647H334V0H154V1380Z" />
<glyph unicode="I" glyph-name="I" horiz-adv-x="489" d="M154 1380H334V0H154V1380Z" />
<glyph unicode="J" glyph-name="J" horiz-adv-x="757" d="M436 471V1380H616V457Q616 -23 199 -23Q87 -23 8 10L33 156Q100 129 184 129Q247 129 291 145T369 198T419 303T436 471Z" />
<glyph unicode="K" glyph-name="K" horiz-adv-x="1110" d="M156 0V1380H334V715H340Q387 782 449 862L870 1380H1092L592 795L1130 0H920L467 678L334 526V0H156Z" />
<glyph unicode="L" glyph-name="L" horiz-adv-x="966" d="M154 0V1380H334V150H924V0H154Z" />
<glyph unicode="M" glyph-name="M" horiz-adv-x="1646" d="M1352 0L1319 606Q1296 1045 1296 1202H1292Q1194 883 1118 678L874 8H739L514 666Q409 980 356 1202H352Q346 932 326 592L289 0H119L215 1380H442L678 713Q758 476 817 246H821Q875 450 969 713L1214
1380H1442L1528 0H1352Z" />
<glyph unicode="N" glyph-name="N" horiz-adv-x="1347" d="M324 0H156V1380H352L793 682Q956 418 1038 233L1044 236Q1024 466 1024 801V1380H1192V0H1012L573 700Q403 973 317 1161L311 1159Q324 953 324 590V0Z" />
<glyph unicode="O" glyph-name="O" horiz-adv-x="1411" d="M696 -23H694Q419 -23 247 171T74 678Q74 840 122 976T255 1205T458 1351T713 1403Q900 1403 1041 1314T1259 1067T1335 705Q1335 532 1285 392T1147 163T944 25T696 -23ZM702 123H705Q808 123 892 168T1032
292T1117 474T1147 696Q1147 780 1130 860T1077 1012T991 1138T867 1225T707 1257Q620 1257 547 1226T422 1141T334 1014T280 857T262 682Q262 534 312 409T465 203T702 123Z" />
<glyph unicode="P" glyph-name="P" horiz-adv-x="1089" d="M156 0V1362Q312 1391 498 1391Q758 1391 885 1276Q1008 1169 1008 989Q1008 803 899 694Q830 620 720 582T477 543Q383 543 334 555V0H156ZM334 1235V700Q389 686 481 686Q644 686 735 762T827 979Q827
1112 740 1180T502 1249Q388 1249 334 1235Z" />
<glyph unicode="Q" glyph-name="Q" horiz-adv-x="1411" d="M1346 -53L1294 -201Q1079 -147 766 -43Q704 -23 682 -23Q557 -18 448 30T255 164T123 382T74 676Q74 839 122 975T254 1205T457 1351T715 1403Q900 1403 1042 1314T1259 1066T1335 705Q1335 448 1228
278T942 43V35Q1166 -22 1346 -53ZM702 123H705Q808 123 892 168T1032 292T1117 474T1147 696Q1147 802 1120 901T1040 1080T902 1208T711 1257Q602 1257 515 1209T373 1080T291 897T262 680Q262 531 312 406T465 202T702 123Z" />
<glyph unicode="R" glyph-name="R" horiz-adv-x="1101" d="M156 0V1360Q311 1391 498 1391Q772 1391 899 1276Q950 1231 979 1163T1008 1014Q1008 885 935 794T748 664V657Q894 606 950 379Q1024 60 1055 0H870Q838 59 780 330Q749 472 687 532T502 598H334V0H156ZM334
1235V733H516Q658 733 742 805T827 995Q827 1124 742 1187T510 1251Q396 1251 334 1235Z" />
<glyph unicode="S" glyph-name="S" horiz-adv-x="1009" d="M86 70L133 217Q277 129 451 129Q586 129 662 192T739 362Q739 459 680 521T479 637Q302 698 209 792T115 1026Q115 1189 238 1295T561 1401Q746 1401 864 1335L815 1188Q707 1253 555 1253Q425 1253
360 1191T295 1047Q295 955 357 898T569 782Q751 710 835 618T920 377Q920 296 890 226T802 100T650 12T438 -20Q340 -20 242 6T86 70Z" />
<glyph unicode="T" glyph-name="T" horiz-adv-x="1017" d="M418 0V1229H-2V1380H1020V1229H598V0H418Z" />
<glyph unicode="U" glyph-name="U" horiz-adv-x="1325" d="M154 1380H334V561Q334 341 421 232T655 123Q813 123 902 232T991 561V1380H1171V573Q1171 418 1132 302T1022 116T857 12T649 -23Q540 -23 452 9T296 110T191 294T154 567V1380Z" />
<glyph unicode="V" glyph-name="V" horiz-adv-x="1142" d="M655 0H459L6 1380H201L416 700Q520 361 563 184H567Q617 390 725 698L958 1380H1149L655 0Z" />
<glyph unicode="W" glyph-name="W" horiz-adv-x="1732" d="M567 0H381L31 1380H219L383 682Q451 393 485 205H489Q513 345 602 684L786 1380H973L1141 680Q1215 363 1237 207H1241Q1268 349 1352 684L1534 1380H1716L1325 0H1139L965 717Q898 996 874 1169H870Q842
990 764 719L567 0Z" />
<glyph unicode="X" glyph-name="X" horiz-adv-x="1169" d="M1118 0H911L733 305Q634 467 575 578H571Q517 467 422 303L256 0H51L473 698L68 1380H274L457 1057Q542 907 584 823H590Q639 925 715 1057L901 1380H1108L688 709L1118 0Z" />
<glyph unicode="Y" glyph-name="Y" horiz-adv-x="1107" d="M643 0H463V586L25 1380H229L424 999Q537 768 561 715H565Q593 784 705 999L903 1380H1104L643 588V0Z" />
<glyph unicode="Z" glyph-name="Z" horiz-adv-x="1132" d="M61 0V104L827 1225V1231H127V1380H1059V1272L297 156V150H1069V0H61Z" />
<glyph unicode="[" glyph-name="bracketleft" horiz-adv-x="581" d="M541 -229H166V1405H541V1292H307V-117H541V-229Z" />
<glyph unicode="\" glyph-name="backslash" horiz-adv-x="698" d="M700 -82H561L4 1403H143L700 -82Z" />
<glyph unicode="]" glyph-name="bracketright" horiz-adv-x="581" d="M41 1405H416V-229H41V-117H274V1292H41V1405Z" />
<glyph unicode="^" glyph-name="asciicircum" horiz-adv-x="1220" d="M1098 387H954L612 1182H608L266 387H125L547 1331H676L1098 387Z" />
<glyph unicode="_" glyph-name="underscore" horiz-adv-x="1024" d="M0 -154H1024V-256H0V-154Z" />
<glyph unicode="`" glyph-name="grave" horiz-adv-x="614" d="M45 1419H242L422 1126H295L45 1419Z" />
<glyph unicode="a" glyph-name="a" horiz-adv-x="987" d="M848 608V238Q848 95 862 0H700L684 125H678Q635 62 555 20T375 -23Q279 -23 209 19T105 124T72 262Q72 442 226 537T668 631V651Q668 681 665 707T647 767T610 825T543 865T442 881Q292 881 182 807L141
928Q204 967 290 990T469 1014Q557 1014 625 991T734 929T802 837T838 727T848 608ZM672 334V506Q252 515 252 283Q252 198 299 155T420 111Q512 111 576 159T664 276Q672 301 672 334Z" />
<glyph unicode="b" glyph-name="b" horiz-adv-x="1165" d="M150 256V1454H330V834H334Q383 919 469 966T672 1014Q857 1014 973 874T1090 510Q1090 381 1052 277T949 109T807 11T643 -23Q419 -23 311 164H307L297 0H141Q150 102 150 256ZM330 575V397Q330 362
336 332Q362 238 436 180T606 121Q747 121 827 224T907 502Q907 660 829 766T612 872Q518 872 442 812T340 651Q330 614 330 575Z" />
<glyph unicode="c" glyph-name="c" horiz-adv-x="917" d="M825 172L856 37Q740 -20 571 -20Q347 -20 213 118T78 485Q78 717 224 865T610 1014Q760 1014 860 961L819 823Q731 870 610 870Q446 870 353 763T260 496Q260 327 357 226T604 125Q716 125 825 172Z" />
<glyph unicode="d" glyph-name="d" horiz-adv-x="1155" d="M825 1454H1006V256Q1006 91 1014 0H852L844 172H840Q796 85 709 31T504 -23Q321 -23 200 117T78 481Q77 722 206 868T522 1014Q630 1014 708 971T821 864H825V1454ZM825 416V588Q825 633 817 666Q797
753 726 812T557 872Q420 872 340 766T260 492Q260 332 337 228T553 123Q646 123 719 182T817 340Q825 369 825 416Z" />
<glyph unicode="e" glyph-name="e" horiz-adv-x="1026" d="M946 463H252Q253 375 280 308T355 201T461 141T590 121Q750 121 864 172L897 43Q760 -20 565 -20Q340 -20 209 117T78 479Q78 629 133 750T296 942T545 1014Q638 1014 711 983T828 903T901 790T941 666T952
547Q952 493 946 463ZM254 592H778Q779 640 768 687T731 780T653 856T530 885Q477 885 432 867T357 818T305 749T270 671T254 592Z" />
<glyph unicode="f" glyph-name="f" horiz-adv-x="598" d="M346 0H166V854H29V991H166V1038Q166 1274 283 1384Q377 1477 522 1477Q604 1477 676 1448L653 1309Q602 1331 537 1331Q344 1331 344 1044V991H584V854H346V0Z" />
<glyph unicode="g" glyph-name="g" horiz-adv-x="1144" d="M997 721V145Q997 -24 963 -133T856 -309Q723 -428 494 -428Q402 -428 312 -407T164 -346L209 -207Q330 -287 500 -287Q647 -287 733 -203T819 61V170H815Q773 96 691 50T500 4Q317 4 198 142T78 489Q78
611 115 712T216 878T359 978T526 1014Q644 1014 720 965T836 842H840L846 991H1006Q997 902 997 721ZM817 424V602Q817 651 807 682Q781 767 716 820T555 874Q424 874 342 772T260 498Q260 399 292 320T392 191T553 141Q639 141 707 191T803 328Q817 367 817 424Z"
/>
<glyph unicode="h" glyph-name="h" horiz-adv-x="1136" d="M150 0V1454H330V836H334Q380 919 463 963Q547 1014 647 1014Q691 1014 734 1003T826 963T910 888T969 765T993 590V0H813V571Q813 702 759 783T584 864Q500 864 435 813T342 684Q330 654 330 598V0H150Z" />
<glyph unicode="i" glyph-name="i" horiz-adv-x="479" d="M330 0H150V991H330V0ZM238 1159H236Q188 1159 158 1191T127 1270Q127 1318 158 1350T240 1382Q288 1382 319 1350T350 1270Q350 1223 319 1191T238 1159Z" />
<glyph unicode="j" glyph-name="j" horiz-adv-x="497" d="M-74 -432L-94 -291Q41 -281 102 -215Q141 -172 156 -94T172 158V991H352V88Q352 -60 325 -156T233 -319Q178 -375 93 -403T-74 -432ZM260 1159H258Q210 1159 180 1191T150 1270Q150 1318 181 1350T262
1382T342 1350T373 1270Q373 1223 343 1191T260 1159Z" />
<glyph unicode="k" glyph-name="k" horiz-adv-x="960" d="M330 1454V537H334Q373 592 420 649L713 991H928L545 584L981 0H762L422 475L330 373V0H150V1454H330Z" />
<glyph unicode="l" glyph-name="l" horiz-adv-x="483" d="M150 0V1454H330V0H150Z" />
<glyph unicode="m" glyph-name="m" horiz-adv-x="1708" d="M150 0V723Q150 806 141 991H299L307 831H313Q421 1014 627 1014Q725 1014 798 960T905 815H909Q949 889 1022 944Q1114 1014 1239 1014Q1282 1014 1324 1003T1412 962T1490 885T1545 761T1567 584V0H1391V561Q1391
708 1337 787T1176 866Q1101 866 1044 820T961 705Q946 660 946 614V0H770V596Q770 718 717 792T563 866Q485 866 425 813T340 686Q326 648 326 598V0H150Z" />
<glyph unicode="n" glyph-name="n" horiz-adv-x="1136" d="M150 0V723Q150 868 141 991H301L311 829H315Q357 907 442 960T643 1014Q688 1014 732 1003T825 963T909 888T969 766T993 592V0H813V571Q813 634 801 685T763 778T692 843T584 866Q499 866 434 813T342
682Q330 648 330 598V0H150Z" />
<glyph unicode="o" glyph-name="o" horiz-adv-x="1124" d="M555 -23H553Q349 -23 214 117T78 487Q78 609 116 709T221 875T377 978T569 1014Q782 1014 914 873T1047 506Q1047 399 1019 310T942 160T830 57T697 -4T555 -23ZM559 113H561Q691 113 776 222T862 500Q862
566 845 630T794 752T701 844T565 879T429 846T334 757T280 634T262 494Q262 330 345 222T559 113Z" />
<glyph unicode="p" glyph-name="p" horiz-adv-x="1165" d="M150 -406V668Q150 850 141 991H303L313 821H317Q430 1014 668 1014Q851 1014 970 874T1090 510Q1090 381 1053 278T951 110T807 11T639 -23Q539 -23 459 18T334 133H330V-406H150ZM330 575V403Q330 359
338 330Q361 236 436 178T606 119Q747 119 827 223T907 502Q907 603 875 685T774 818T614 870Q520 870 443 809T340 647Q330 592 330 575Z" />
<glyph unicode="q" glyph-name="q" horiz-adv-x="1153" d="M825 -406V152H821Q779 74 696 26T498 -23Q320 -23 199 116T78 479Q78 586 104 676T175 828T278 932T399 994T526 1014Q636 1014 714 967T831 842H836L842 991H1014Q1006 882 1006 719V-406H825ZM825
403V590Q825 635 817 666Q794 753 725 811T559 870Q421 870 341 765T260 489Q260 331 335 226T553 121Q642 121 711 173T811 317Q825 361 825 403Z" />
<glyph unicode="r" glyph-name="r" horiz-adv-x="669" d="M150 0V682Q150 853 141 991H299L307 797H313Q347 896 423 955T590 1014Q607 1014 639 1010V840Q603 844 578 844Q485 844 420 781T336 614Q330 575 330 530V0H150Z" />
<glyph unicode="s" glyph-name="s" horiz-adv-x="811" d="M82 49L125 184Q244 115 365 115Q458 115 506 155T555 262Q555 325 514 365T373 442Q109 539 109 723Q109 847 203 930T451 1014Q598 1014 692 952L649 823Q551 881 446 881Q369 881 326 842T283 745T324
652T469 575Q601 526 665 456T729 279Q729 144 631 62T360 -20Q200 -20 82 49Z" />
<glyph unicode="t" glyph-name="t" horiz-adv-x="677" d="M190 1174L367 1229V991H625V854H367V322Q367 225 398 177T502 129Q567 129 606 141L614 4Q546 -20 455 -20Q329 -20 260 55Q190 135 190 315V854H37V991H190V1174Z" />
<glyph unicode="u" glyph-name="u" horiz-adv-x="1128" d="M979 991V272Q979 104 987 0H827L817 162H813Q772 88 689 33T485 -23Q435 -23 390 -12T298 31T219 109T164 234T143 412V991H324V444Q324 127 545 127Q630 127 692 176T782 293Q799 330 799 385V991H979Z" />
<glyph unicode="v" glyph-name="v" horiz-adv-x="985" d="M27 991H219L414 436Q469 279 494 180H500Q523 267 584 436L776 991H965L575 0H403L27 991Z" />
<glyph unicode="w" glyph-name="w" horiz-adv-x="1507" d="M37 991H221L354 489Q411 256 426 172H432Q457 281 520 487L682 991H834L987 496Q1042 322 1075 172H1081Q1103 304 1157 494L1298 991H1477L1157 0H993L842 473Q781 671 754 801H750Q720 656 659 471L500
0H336L37 991Z" />
<glyph unicode="x" glyph-name="x" horiz-adv-x="948" d="M33 991H233L375 778Q426 703 475 616H481Q517 682 582 780L719 991H915L578 512L924 0H719L573 223Q531 287 467 395H463Q453 376 358 223L215 0H16L369 506L33 991Z" />
<glyph unicode="y" glyph-name="y" horiz-adv-x="964" d="M18 991H215L430 406Q461 323 496 203H500Q506 222 518 263T541 341T563 410L760 991H950L680 285Q580 22 505 -117T340 -336Q230 -429 119 -451L74 -301Q158 -275 231 -213Q322 -142 383 -12Q397 19 397
31Q397 46 383 78L18 991Z" />
<glyph unicode="z" glyph-name="z" horiz-adv-x="876" d="M37 0V104L485 688Q573 795 616 844V848H78V991H834V879L389 301Q318 209 262 147V143H842V0H37Z" />
<glyph unicode="{" glyph-name="braceleft" horiz-adv-x="581" d="M57 539V643Q109 643 144 656T195 693T217 740T223 795Q223 851 207 967Q190 1088 190 1137Q190 1272 271 1338T489 1405H530V1292H496Q408 1291 370 1247T332 1116Q332 1085 346 971Q362 869
362 815Q366 634 215 594V590Q366 551 362 367Q362 311 346 209Q332 95 332 61Q332 -114 496 -117H530V-229H487Q351 -229 271 -163T190 51Q190 115 209 219Q223 352 223 385Q223 539 57 539Z" />
<glyph unicode="|" glyph-name="bar" horiz-adv-x="489" d="M176 1536H313V-512H176V1536Z" />
<glyph unicode="}" glyph-name="braceright" horiz-adv-x="581" d="M524 643V539Q358 539 358 385Q358 340 375 219Q391 109 391 51Q391 -96 311 -162T94 -229H51V-117H86Q250 -114 250 61Q250 95 236 209Q219 305 219 367Q216 552 367 590V594Q216 634 219 815Q219
875 236 971Q250 1085 250 1116Q250 1203 212 1247T86 1292H51V1405H92Q229 1405 310 1339T391 1137Q391 1081 375 967Q358 844 358 795Q358 764 364 740T386 693T437 656T524 643Z" />
<glyph unicode="~" glyph-name="asciitilde" horiz-adv-x="1220" d="M223 432H100Q96 579 164 659T344 739Q405 739 464 720T635 647Q701 615 732 601T808 574T889 561Q996 561 999 733H1120Q1127 574 1060 499T887 424Q828 424 763 444T590 514Q579 520 551 533T512
552T477 568T441 583T410 594T375 602T344 604Q226 604 223 432Z" />
</font>
</defs>
</svg>
