<?xml version="1.0" standalone="no"?> <!DOCTYPE svg PUBLIC "-//W3C//DTD SVG 1.0//EN" "../../../www.w3.org/TR/2001/REC-SVG-20010904/DTD/svg10.dtd" > <svg xmlns="http://www.w3.org/2000/svg" width="100%" height="100%">
<defs >
<font id="myriadproit" horiz-adv-x="810" ><font-face
    font-family="Myriad Pro"
    units-per-em="2048"
    panose-1="2 11 5 3 3 4 3 9 2 4"
    ascent="1536"
    descent="-512"
    alphabetic="0" />
<missing-glyph horiz-adv-x="1024" d="M0 0V1434H1024V0H0ZM512 809L860 1331H164L512 809ZM573 717L922 195V1239L573 717ZM164 102H860L512 625L164 102ZM102 1239V195L451 717L102 1239Z" />
<glyph unicode=" " glyph-name="space" horiz-adv-x="372" />
<glyph unicode="!" glyph-name="exclam" horiz-adv-x="483" d="M291 397H156L317 1380H510L291 397ZM160 -23H158Q109 -23 78 11T47 96Q47 154 83 193T174 233Q225 233 257 199T289 113Q289 55 253 16T160 -23Z" />
<glyph unicode="&quot;" glyph-name="quotedbl" horiz-adv-x="622" d="M248 1417H426L299 922H186L248 1417ZM555 1417H731L604 922H492L555 1417Z" />
<glyph unicode="#" glyph-name="numbersign" horiz-adv-x="1007" d="M395 520H582L674 821H489L395 520ZM233 0H115L238 403H70L90 520H276L371 821H193L213 938H406L528 1331H647L524 938H711L834 1331H952L829 938H997L977 821H793L700 520H877L856 403H662L539
0H418L543 403H358L233 0Z" />
<glyph unicode="$" glyph-name="dollar" horiz-adv-x="1007" d="M432 -174H307L346 31Q275 34 198 60T78 121L133 254Q260 166 408 166Q521 166 597 229T674 393Q674 463 635 518T502 623Q370 691 304 770T238 950Q238 1088 340 1189T598 1307L637 1505H762L723
1307Q793 1304 853 1284T946 1237L889 1110Q775 1176 653 1176Q547 1176 483 1118T418 975Q418 907 460 860T616 752Q854 621 854 426Q854 261 747 156T471 31L432 -174Z" />
<glyph unicode="%" glyph-name="percent" horiz-adv-x="1583" d="M524 1354H526Q645 1354 707 1273T770 1075Q770 930 723 808T589 613T393 539Q276 539 209 619T141 831Q141 926 168 1019T244 1187T365 1308T524 1354ZM506 1245H504Q439 1245 387 1178T308 1017T281
829Q281 647 410 647Q475 647 527 716T605 879T631 1067Q631 1112 622 1149T583 1216T506 1245ZM381 -25H258L1262 1356H1384L381 -25ZM1264 803H1266Q1385 803 1447 724T1509 528Q1509 382 1462 259T1329 61T1133 -14Q1017 -14 950 67T883 283Q883 412 928 530T1063
725T1264 803ZM1245 694H1243Q1179 694 1127 628T1049 468T1022 279Q1022 198 1052 146T1151 94Q1216 94 1268 164T1345 329T1370 518Q1370 551 1365 579T1346 635T1307 678T1245 694Z" />
<glyph unicode="&amp;" glyph-name="ampersand" horiz-adv-x="1206" d="M1092 0H891Q844 55 797 127Q631 -23 408 -23Q235 -23 135 75T35 322Q35 400 64 471T143 596T251 693T377 768V774Q301 910 301 1026Q301 1182 406 1292T668 1403Q800 1403 873 1325T946
1130Q946 1009 859 911T592 729V723Q705 532 840 340Q956 483 1049 754H1208Q1092 410 918 229Q1021 86 1092 0ZM453 111H455Q608 111 725 233Q514 543 438 670Q394 643 362 618T291 553T229 460T207 348Q207 245 272 178T453 111ZM651 1282H649Q570 1282 515 1214T459
1044Q459 929 524 825Q655 888 721 960T788 1126Q788 1193 755 1237T651 1282Z" />
<glyph unicode="&apos;" glyph-name="quotesingle" horiz-adv-x="339" d="M262 1417H438L311 922H201L262 1417Z" />
<glyph unicode="(" glyph-name="parenleft" horiz-adv-x="581" d="M571 1415H717Q649 1338 590 1253T473 1061T376 840T312 593T287 322Q287 24 399 -244H270Q139 18 139 326Q139 500 177 668T280 973T417 1217T571 1415Z" />
<glyph unicode=")" glyph-name="parenright" horiz-adv-x="581" d="M51 -244H-94Q-8 -145 64 -33T200 217T300 520T336 854Q336 1151 223 1415H354Q483 1160 483 850Q483 675 445 507T342 201T206 -45T51 -244Z" />
<glyph unicode="*" glyph-name="asterisk" horiz-adv-x="847" d="M692 1403L809 1331L584 1079L586 1075L897 1114L868 977L575 1014L573 1008L741 762L610 688L512 975H508L346 686L238 762L461 1010V1016L154 977L180 1114L467 1075V1081L305 1331L436 1401L535
1118H539L692 1403Z" />
<glyph unicode="+" glyph-name="plus" horiz-adv-x="1220" d="M561 1090H688V608H1137V487H688V0H561V487H113V608H561V1090Z" />
<glyph unicode="," glyph-name="comma" horiz-adv-x="432" d="M43 -240L-88 -254Q-36 -152 23 -10T113 238L315 258Q262 131 181 -17T43 -240Z" />
<glyph unicode="-" glyph-name="hyphen" horiz-adv-x="628" d="M98 618H588L563 487H74L98 618Z" />
<glyph unicode="." glyph-name="period" horiz-adv-x="432" d="M158 -20H156Q106 -20 75 14T43 100Q43 158 79 198T172 238Q224 238 255 203T287 115Q287 58 251 19T158 -20Z" />
<glyph unicode="../../default.htm" glyph-name="slash" horiz-adv-x="667" d="M27 -82H-111L713 1403H852L27 -82Z" />
<glyph unicode="0" glyph-name="zero" horiz-adv-x="1007" d="M424 -23H422Q332 -23 267 12T163 110T106 254T88 434Q88 601 130 765T247 1060T432 1272T670 1354Q761 1354 827 1319T930 1222T982 1090T999 936Q999 804 976 669T903 410T787 190T626 35T424 -23ZM442
115H444Q515 115 579 173T688 323T765 524T813 738T829 926Q829 1217 651 1217Q568 1217 493 1140T367 944T288 688T258 426Q258 115 442 115Z" />
<glyph unicode="1" glyph-name="one" horiz-adv-x="1007" d="M371 0L592 1159H588L360 1044L342 1180L643 1331H788L535 0H371Z" />
<glyph unicode="2" glyph-name="two" horiz-adv-x="1007" d="M805 0H0L20 113L219 279Q367 404 460 491T632 670T748 844T784 1006Q784 1044 773 1078T739 1143T675 1190T578 1208Q441 1208 303 1112L260 1235Q330 1288 426 1321T614 1354Q704 1354 773 1326T882
1251T941 1147T961 1028Q961 946 930 862T851 704T723 547T568 395T385 238L272 150V145H831L805 0Z" />
<glyph unicode="3" glyph-name="three" horiz-adv-x="1007" d="M33 61L90 197Q212 123 346 123Q412 123 467 140T561 187T626 254T665 333T678 416Q678 534 599 592T393 651H326L352 784H420Q469 784 524 800T631 846T716 928T750 1042Q750 1121 702 1164T561
1208Q416 1208 309 1135L272 1264Q420 1354 590 1354Q750 1354 840 1272T930 1067Q930 943 844 851T635 723V719Q741 694 799 611T858 418Q858 230 709 104T340 -23Q239 -23 155 2T33 61Z" />
<glyph unicode="4" glyph-name="four" horiz-adv-x="1007" d="M686 0H526L596 371H23L45 485L754 1331H940L782 506H963L936 371H756L686 0ZM231 506H621L709 946Q722 1013 758 1159H752Q737 1137 686 1061T602 942L231 510V506Z" />
<glyph unicode="5" glyph-name="five" horiz-adv-x="1007" d="M997 1331L969 1184H512L408 846Q452 850 473 850Q522 850 588 834T707 786Q784 742 824 663T864 494Q864 337 787 218T587 38T317 -23Q227 -23 148 -1T31 51L84 186Q124 160 191 142T334 123Q476
123 582 221T688 457Q688 713 367 713Q323 713 217 705L401 1331H997Z" />
<glyph unicode="6" glyph-name="six" horiz-adv-x="1007" d="M963 1352L938 1206Q881 1209 815 1196Q636 1165 496 1036T287 713L291 711Q350 787 439 833T618 879Q770 879 855 777T940 516Q940 385 879 262T703 58T451 -23Q267 -23 170 98T72 416Q72 634 170
834T408 1149Q602 1314 848 1343Q895 1352 963 1352ZM461 115H463Q548 115 618 173T726 321T764 506Q764 622 709 682T553 743Q475 743 399 694T272 561Q251 530 248 498Q240 436 240 391Q240 267 297 191T461 115Z" />
<glyph unicode="7" glyph-name="seven" horiz-adv-x="1007" d="M274 1331H1071L1049 1212L276 0H88L856 1182L854 1186H246L274 1331Z" />
<glyph unicode="8" glyph-name="eight" horiz-adv-x="1007" d="M643 1354H645Q793 1354 887 1272T981 1053Q981 939 911 851T721 707L719 700Q817 648 866 565T915 385Q915 309 889 243T818 128T713 46T586 -6T449 -23Q265 -23 157 70T49 307T137 553T360 709L362
715Q215 820 215 977Q215 1082 273 1169T429 1305T643 1354ZM459 106H461Q579 106 659 180T739 371Q739 469 682 534T506 641Q452 626 404 600T316 536T251 445T227 328Q227 235 287 171T459 106ZM621 1225H618Q518 1225 450 1155T381 989Q381 834 575 764Q679
798 746 869T813 1032Q813 1068 804 1100T773 1162T713 1208T621 1225Z" />
<glyph unicode="9" glyph-name="nine" horiz-adv-x="1007" d="M115 -20L135 125Q177 123 262 133Q414 156 545 264Q707 393 788 616H782Q722 547 641 510T479 473Q374 473 299 523T190 650T156 817Q156 918 194 1016T298 1188T456 1308T649 1354Q741 1354 811
1321T923 1229T987 1096T1008 934Q1008 815 977 694T894 475T784 299T664 168Q578 96 474 50T264 -10Q167 -24 115 -20ZM631 1217H629Q549 1217 480 1163T370 1021T330 838Q330 734 381 670T530 606Q610 606 679 647T795 760Q816 788 821 817Q836 883 836 954Q836
1075 786 1146T631 1217Z" />
<glyph unicode=":" glyph-name="colon" horiz-adv-x="432" d="M293 700H291Q242 700 211 734T180 819Q180 877 216 916T307 956Q359 956 390 922T422 836Q422 778 386 739T293 700ZM156 -23H154Q105 -23 74 11T43 96Q43 154 79 193T170 233Q222 233 253 199T285
113Q285 55 249 16T156 -23Z" />
<glyph unicode=";" glyph-name="semicolon" horiz-adv-x="432" d="M41 -240L-88 -254Q-38 -156 21 -13T113 238L313 258Q259 129 178 -18T41 -240ZM303 700H301Q253 700 222 734T190 819Q190 876 226 916T317 956Q369 956 400 922T432 836Q432 778 396 739T303 700Z" />
<glyph unicode="&lt;" glyph-name="less" horiz-adv-x="1220" d="M160 489V600L1077 1090V950L309 547V543L1077 139V0L160 489Z" />
<glyph unicode="=" glyph-name="equal" horiz-adv-x="1220" d="M1139 692H115V813H1139V692ZM1139 289H115V410H1139V289Z" />
<glyph unicode="&gt;" glyph-name="greater" horiz-adv-x="1220" d="M1108 602V487L190 0V139L965 543V547L190 950V1090L1108 602Z" />
<glyph unicode="?" glyph-name="question" horiz-adv-x="786" d="M426 393H260Q261 404 263 422T266 446Q282 625 465 819Q524 880 555 917T614 1010T643 1118Q643 1180 606 1221T487 1262Q372 1262 283 1204L250 1329Q376 1405 530 1405Q602 1405 659 1383T750
1324T801 1242T819 1149Q819 1091 803 1038T753 933T684 841T596 745Q521 667 483 598T434 451Q430 411 426 393ZM281 -23H279Q230 -23 199 11T168 96Q168 154 204 193T295 233Q346 233 378 199T410 113Q410 55 374 16T281 -23Z" />
<glyph unicode="@" glyph-name="at" horiz-adv-x="1474" d="M901 522L944 752Q904 768 842 768Q706 768 609 659T512 399Q512 329 547 287T649 244Q734 244 808 332T901 522ZM1022 -43L1055 -133Q908 -215 696 -215Q520 -215 379 -138T155 86T72 426Q72 584 125
727T273 977T509 1148T817 1212Q993 1212 1129 1136T1339 925T1413 621Q1413 399 1307 266T1049 133Q982 133 938 178T897 313H891Q780 133 600 133Q507 133 443 203T379 391Q379 518 440 629T613 808T864 877Q992 877 1083 834L1016 463Q971 238 1077 233Q1161
230 1229 334T1298 606Q1298 835 1166 976T801 1118Q675 1118 563 1070T368 935T235 719T186 438Q186 183 332 33T719 -117Q893 -117 1022 -43Z" />
<glyph unicode="A" glyph-name="A" horiz-adv-x="1163" d="M821 436H344L125 0H-53L659 1380H860L1051 0H877L821 436ZM408 571H809L754 971Q752 997 743 1088T731 1225H725Q720 1213 678 1118T612 973L408 571Z" />
<glyph unicode="B" glyph-name="B" horiz-adv-x="1062" d="M68 10L322 1362Q478 1391 618 1391Q832 1391 936 1296Q1036 1214 1036 1081Q1036 955 950 862T739 735V731Q838 701 901 622T965 424Q965 323 920 240T801 102Q649 -10 352 -10Q173 -10 68 10ZM469 1243L383
795H510Q663 795 761 868T860 1065Q860 1161 794 1208T610 1255Q510 1255 469 1243ZM356 666L258 135Q315 127 397 127Q475 126 543 143T666 195T754 291T786 432Q786 547 703 606T496 666H356Z" />
<glyph unicode="C" glyph-name="C" horiz-adv-x="1136" d="M995 184L1018 45Q873 -20 659 -20Q399 -20 250 133T100 551Q100 748 176 923T393 1217Q614 1401 915 1401Q1019 1401 1100 1380T1214 1335L1159 1198Q1065 1255 887 1255Q778 1255 675 1215T492 1102Q394
1009 338 870T281 575Q281 480 304 401T375 259T506 161T700 125Q882 125 995 184Z" />
<glyph unicode="D" glyph-name="D" horiz-adv-x="1325" d="M68 8L324 1362Q495 1391 668 1391Q839 1391 968 1344T1176 1206Q1305 1072 1305 831Q1305 642 1232 469T1028 182Q909 83 756 37T401 -10Q200 -10 68 8ZM471 1237L262 141Q340 131 440 131Q757 131 934
313Q1026 406 1074 540T1122 823Q1122 919 1098 994T1021 1129T877 1219T659 1251Q540 1251 471 1237Z" />
<glyph unicode="E" glyph-name="E" horiz-adv-x="962" d="M887 793L858 649H356L262 145H827L799 0H63L326 1380H1030L1001 1235H469L385 793H887Z" />
<glyph unicode="F" glyph-name="F" horiz-adv-x="952" d="M63 0L326 1380H1026L997 1235H469L379 770H866L838 627H350L233 0H63Z" />
<glyph unicode="G" glyph-name="G" horiz-adv-x="1275" d="M1204 721L1079 59Q896 -14 690 -14Q393 -14 240 158Q100 310 100 559Q100 735 170 904T369 1190Q482 1288 628 1341T938 1395Q1051 1395 1137 1375T1264 1331L1206 1188Q1090 1247 918 1247Q666 1247
489 1079Q393 989 338 852T283 573Q283 365 391 248T723 131Q849 131 932 170L1012 582H731L758 721H1204Z" />
<glyph unicode="H" glyph-name="H" horiz-adv-x="1284" d="M326 1380H496L385 799H1020L1130 1380H1300L1038 0H868L989 649H356L233 0H63L326 1380Z" />
<glyph unicode="I" glyph-name="I" horiz-adv-x="477" d="M324 1380H494L231 0H61L324 1380Z" />
<glyph unicode="J" glyph-name="J" horiz-adv-x="745" d="M430 451L606 1380H776L596 430Q550 190 443 84T141 -23Q81 -23 23 -12T-63 14L-27 160Q39 129 147 129Q261 129 328 201T430 451Z" />
<glyph unicode="K" glyph-name="K" horiz-adv-x="1054" d="M63 0L326 1380H494L367 709L375 711L512 864L997 1380H1210L629 786L983 0H799L498 678L332 524L231 0H63Z" />
<glyph unicode="L" glyph-name="L" horiz-adv-x="905" d="M63 0L326 1380H496L260 147H817L788 0H63Z" />
<glyph unicode="M" glyph-name="M" horiz-adv-x="1597" d="M1384 0H1221L1319 745Q1355 1012 1393 1212H1386Q1272 960 1171 768L760 8H631L528 752Q500 972 485 1212H479Q384 780 375 745L186 0H27L385 1380H602L711 588Q738 359 743 242H750Q817 400 911 584L1337
1380H1561L1384 0Z" />
<glyph unicode="N" glyph-name="N" horiz-adv-x="1294" d="M223 0H63L326 1380H512L827 598Q903 404 948 213L952 215Q966 408 1012 647L1151 1380H1311L1049 0H881L565 780Q479 1005 438 1178L432 1176Q414 1012 360 721L223 0Z" />
<glyph unicode="O" glyph-name="O" horiz-adv-x="1368" d="M625 -23H623Q494 -23 392 23T226 148T131 327T98 539Q98 725 168 910T362 1217Q452 1304 574 1353T825 1403Q933 1403 1021 1373T1170 1290T1270 1165T1329 1011T1348 838Q1348 652 1282 471T1096 170Q900
-23 625 -23ZM645 121H647Q826 121 963 258Q1056 353 1111 515T1167 829Q1167 894 1159 950T1126 1065T1062 1165T956 1233T803 1260Q625 1260 487 1122Q391 1026 335 865T279 553Q279 465 299 390T361 254T475 157T645 121Z" />
<glyph unicode="P" glyph-name="P" horiz-adv-x="1038" d="M63 0L324 1362Q460 1391 623 1391Q848 1391 961 1284Q1061 1193 1061 1036Q1061 927 1014 832T895 678Q817 612 708 579T477 545Q408 545 336 555L231 0H63ZM465 1239L362 698Q420 686 500 686Q673 686
781 781T889 1024Q889 1141 815 1197T614 1253Q519 1253 465 1239Z" />
<glyph unicode="Q" glyph-name="Q" horiz-adv-x="1368" d="M1206 -51L1141 -193Q1004 -160 860 -117T662 -47Q583 -20 567 -20Q469 -14 384 26T235 137T135 311T98 541Q98 722 166 904T354 1206Q445 1298 570 1350T825 1403Q934 1403 1023 1372T1171 1287T1270
1160T1328 1007T1346 838Q1346 661 1282 480T1104 184Q981 63 840 25V18Q1081 -34 1206 -51ZM639 121H641Q822 121 958 254Q1055 350 1111 516T1167 834Q1167 894 1159 948T1126 1061T1063 1162T957 1232T803 1260Q623 1260 492 1124Q394 1027 337 863T279 549Q279
481 290 420T329 304T397 208T500 145T639 121Z" />
<glyph unicode="R" glyph-name="R" horiz-adv-x="1071" d="M63 0L324 1362Q459 1391 625 1391Q846 1391 954 1290Q1057 1205 1057 1063Q1057 917 962 809T729 662L727 657Q863 613 881 381Q894 206 902 122T924 0H748Q733 49 715 334Q708 475 655 538T498 602H346L233
0H63ZM469 1241L373 733H524Q681 733 780 822T879 1040Q879 1147 807 1201T612 1255Q527 1255 469 1241Z" />
<glyph unicode="S" glyph-name="S" horiz-adv-x="954" d="M25 76L86 215Q214 127 379 127Q503 127 590 196T678 385Q678 462 631 523T475 643Q339 716 270 802T201 997Q201 1117 265 1210T435 1352T668 1401Q761 1401 835 1380T950 1329L889 1190Q782 1257 651
1255Q528 1255 453 1188T377 1030Q377 949 427 893T592 774Q724 704 789 617T854 406Q854 222 719 101T356 -20Q254 -19 162 9T25 76Z" />
<glyph unicode="T" glyph-name="T" horiz-adv-x="970" d="M303 0L537 1233H133L162 1380H1141L1112 1233H707L473 0H303Z" />
<glyph unicode="U" glyph-name="U" horiz-adv-x="1271" d="M324 1380H494L338 563Q322 472 322 389Q322 260 391 192T578 123Q878 123 963 561L1120 1380H1290L1133 555Q1075 255 929 116T555 -23Q374 -23 263 79T152 385Q152 480 170 575L324 1380Z" />
<glyph unicode="V" glyph-name="V" horiz-adv-x="1103" d="M530 0H342L172 1380H346L446 496Q471 259 471 184H477Q550 363 629 518L1069 1380H1255L530 0Z" />
<glyph unicode="W" glyph-name="W" horiz-adv-x="1697" d="M449 0H266L199 1380H369L399 553Q403 371 399 195H403Q465 364 545 543L928 1380H1110L1139 586Q1147 339 1141 197H1145Q1214 394 1280 551L1653 1380H1831L1190 0H1010L975 784Q966 972 979 1182H973Q892
946 834 819L449 0Z" />
<glyph unicode="X" glyph-name="X" horiz-adv-x="1067" d="M954 0H774L643 342Q591 471 555 584H551Q454 435 389 346L141 0H-61L477 702L219 1380H397L528 1026Q583 871 598 817H602L743 1026L1008 1380H1210L678 705L954 0Z" />
<glyph unicode="Y" glyph-name="Y" horiz-adv-x="1058" d="M498 0H330L438 573L172 1380H354L487 934Q530 783 545 702H549L696 940L995 1380H1194L606 575L498 0Z" />
<glyph unicode="Z" glyph-name="Z" horiz-adv-x="1071" d="M-41 0L-23 104L915 1229L913 1235H258L287 1380H1171L1149 1272L219 152L221 145H946L920 0H-41Z" />
<glyph unicode="[" glyph-name="bracketleft" horiz-adv-x="581" d="M397 -227H39L350 1405H709L688 1294H467L199 -117H418L397 -227Z" />
<glyph unicode="\" glyph-name="backslash" horiz-adv-x="673" d="M635 -82H502L125 1403H258L635 -82Z" />
<glyph unicode="]" glyph-name="bracketright" horiz-adv-x="581" d="M223 1405H582L270 -227H-88L-68 -117H154L422 1294H203L223 1405Z" />
<glyph unicode="^" glyph-name="asciicircum" horiz-adv-x="1220" d="M1094 387H954L618 1182H614L279 387H141L555 1331L680 1329L1094 387Z" />
<glyph unicode="_" glyph-name="underscore" horiz-adv-x="1024" d="M-100 -154H924L903 -256H-121L-100 -154Z" />
<glyph unicode="`" glyph-name="grave" horiz-adv-x="784" d="M295 1405H487L623 1112H500L295 1405Z" />
<glyph unicode="a" glyph-name="a" horiz-adv-x="1069" d="M872 0H715Q715 69 737 256H733Q587 -23 348 -23Q218 -23 141 69T63 305Q63 409 92 511T181 704T321 864T513 973T750 1014Q887 1014 1016 977L913 459Q865 200 872 0ZM768 565L825 864Q780 879 707 879Q583
879 474 801T303 598T240 336Q240 292 248 255T275 185T328 135T410 117Q519 117 625 245T768 565Z" />
<glyph unicode="b" glyph-name="b" horiz-adv-x="1075" d="M326 1454H496L365 811H369Q434 910 525 962T717 1014Q795 1014 854 984T948 902T999 788T1016 657Q1016 564 991 469T913 286T789 129T616 19T399 -23Q260 -23 177 39T94 231Q94 306 113 387L326 1454ZM303
487L281 383Q265 323 268 256Q268 185 309 148T428 111Q502 111 569 144T684 232T768 356T822 497T840 637Q840 738 793 805T651 872Q538 872 439 766T303 487Z" />
<glyph unicode="c" glyph-name="c" horiz-adv-x="866" d="M723 174L739 41Q624 -20 453 -20Q269 -20 171 88T72 362Q72 488 117 606T240 815T433 959T678 1014Q741 1014 799 1000T885 969L836 836Q758 872 668 872Q545 872 447 798T298 614T248 385Q248 261 311
190T494 119Q606 119 723 174Z" />
<glyph unicode="d" glyph-name="d" horiz-adv-x="1075" d="M942 1454H1112L893 315Q861 138 852 0H696L723 197H719Q651 90 560 34T360 -23Q222 -23 144 78T66 338Q66 513 145 668T366 918T678 1014Q779 1014 854 979L942 1454ZM760 489L825 836Q768 879 664 879Q549
879 451 805T297 611T242 360Q242 312 251 272T280 195T338 138T428 117Q531 117 630 222T760 489Z" />
<glyph unicode="e" glyph-name="e" horiz-adv-x="927" d="M748 184L772 57Q633 -20 444 -20Q257 -20 163 91T68 377Q68 489 108 602T217 807T390 956T608 1014Q745 1014 822 942T899 758Q899 664 849 598T706 497T499 448T240 436Q233 405 238 346T260 250Q318
117 481 117Q618 117 748 184ZM735 754V756Q735 815 694 848T584 881Q507 881 438 834T325 718T260 567Q366 565 447 573T596 601T699 659T735 754Z" />
<glyph unicode="f" glyph-name="f" horiz-adv-x="579" d="M252 0H82L244 858H113L137 991H270L279 1044Q320 1280 440 1389Q539 1477 676 1477Q765 1477 813 1450L776 1315Q737 1333 676 1333Q498 1333 446 1038L438 991H659L633 858H414L252 0Z" />
<glyph unicode="g" glyph-name="g" horiz-adv-x="1073" d="M20 -358L68 -225Q113 -255 183 -273T330 -291Q465 -291 555 -211T686 61L719 211H715Q583 0 371 0Q275 0 205 50T101 176T68 344Q68 445 96 543T179 726T309 875T484 977T696 1014Q778 1014 866 994T1016
944L862 125Q832 -38 785 -145T664 -319Q533 -428 317 -428Q228 -428 148 -409T20 -358ZM766 514L829 844Q759 879 666 879Q547 879 449 803T298 612T246 373Q245 328 254 289T283 213T343 156T436 135Q543 135 640 249T766 514Z" />
<glyph unicode="h" glyph-name="h" horiz-adv-x="1093" d="M227 0H57L334 1454H504L381 817H385Q522 1014 739 1014Q784 1014 825 1000T904 956T963 873T985 748Q985 660 969 582L858 0H688L799 573Q811 643 811 711Q811 784 774 828T657 872Q554 872 452 765T319
498L227 0Z" />
<glyph unicode="i" glyph-name="i" horiz-adv-x="468" d="M227 0H57L248 991H416L227 0ZM377 1159H375Q331 1159 305 1189T279 1266Q280 1315 312 1347T391 1380Q436 1380 464 1350T492 1274Q490 1223 458 1191T377 1159Z" />
<glyph unicode="j" glyph-name="j" horiz-adv-x="464" d="M256 991H426L238 2Q192 -241 111 -332Q25 -428 -117 -428Q-191 -428 -229 -416L-209 -283Q-184 -291 -129 -291Q-59 -291 -13 -235T61 -33L256 991ZM377 1159H375Q331 1159 305 1189T279 1266Q280 1315
312 1347T391 1380Q436 1380 464 1350T492 1274Q490 1223 458 1191T377 1159Z" />
<glyph unicode="k" glyph-name="k" horiz-adv-x="933" d="M225 0H57L334 1454H504L330 541H334Q342 551 426 641L774 991H985L553 582L848 0H662L422 487L297 375L225 0Z" />
<glyph unicode="l" glyph-name="l" horiz-adv-x="468" d="M229 0H59L336 1454H506L229 0Z" />
<glyph unicode="m" glyph-name="m" horiz-adv-x="1654" d="M223 0H57L190 702Q215 833 236 991H385L358 805H365Q433 908 523 961T713 1014Q821 1014 879 953T944 793Q1010 900 1103 956T1307 1014Q1352 1014 1393 999T1469 954T1526 873T1548 754Q1548 674 1532
586L1421 0H1255L1362 571Q1376 639 1376 700Q1376 872 1227 872Q1130 872 1038 770T915 508L821 0H657L768 582Q780 650 780 702Q780 737 775 764T754 818T709 858T633 872Q537 872 441 762T315 498L223 0Z" />
<glyph unicode="n" glyph-name="n" horiz-adv-x="1093" d="M227 0H59L190 702Q216 828 238 991H391L365 797H369Q436 901 532 957T737 1014Q784 1014 826 1000T905 955T965 869T987 739Q987 675 969 580L858 0H690L799 573Q811 651 811 700Q811 872 655 872Q556
872 453 763T317 481L227 0Z" />
<glyph unicode="o" glyph-name="o" horiz-adv-x="1069" d="M461 -23H459Q279 -23 176 94T72 385Q72 549 141 692T337 925T621 1014Q699 1014 764 991T874 929T950 837T995 725T1010 602Q1010 487 970 375T861 175T686 32T461 -23ZM479 113H481Q578 113 660 187T788
374T834 602Q834 649 822 694T785 783T713 852T602 879Q500 879 417 804T291 618T248 391Q248 268 311 191T479 113Z" />
<glyph unicode="p" glyph-name="p" horiz-adv-x="1075" d="M139 -406H-31L168 639Q204 832 223 993H379L352 805H356Q422 904 516 959T713 1014Q790 1014 849 984T944 903T998 789T1016 655Q1016 481 941 326T731 74T436 -23Q301 -23 223 23H219L139 -406ZM299
442L248 166Q319 111 438 111Q544 111 638 189T786 391T840 643Q840 685 831 723T800 796T740 851T649 872Q598 872 545 844T444 763T356 627T299 442Z" />
<glyph unicode="q" glyph-name="q" horiz-adv-x="1075" d="M758 -406H588L709 180H705Q643 84 550 31T360 -23Q265 -23 198 27T98 158T66 338T94 536T177 719T307 871T483 975T696 1014Q870 1014 1014 948L758 -406ZM762 500L825 844Q767 879 662 879Q550 879
453 808T299 616T242 358Q242 244 288 181T414 117Q531 117 631 230T762 500Z" />
<glyph unicode="r" glyph-name="r" horiz-adv-x="651" d="M227 0H57L178 639Q194 719 229 991H379Q365 873 350 776H356Q409 884 486 949T659 1014Q679 1014 709 1010L676 842Q652 846 629 846Q521 846 432 730T309 438L227 0Z" />
<glyph unicode="s" glyph-name="s" horiz-adv-x="763" d="M18 47L68 172Q106 148 165 130T281 111Q365 111 417 157T469 272Q469 331 439 371T330 455Q152 553 152 707Q152 839 253 926T512 1014Q574 1014 630 1000T717 965L670 836Q591 881 500 881Q422 881 372
839T322 731Q322 679 355 642T459 565Q643 460 643 305Q643 153 536 67T264 -20Q187 -19 120 0T18 47Z" />
<glyph unicode="t" glyph-name="t" horiz-adv-x="641" d="M317 1174L496 1229L451 991H688L662 858H424L334 377Q313 281 313 219Q313 123 408 123Q458 123 487 131L479 -2Q434 -20 348 -20Q243 -20 191 34T139 172Q139 247 162 356L258 858H117L141 991H283L317 1174Z" />
<glyph unicode="u" glyph-name="u" horiz-adv-x="1077" d="M856 991H1026L891 289Q860 127 848 0H694L721 186H717Q649 88 557 33T367 -23Q316 -23 272 -9T189 35T127 124T104 264Q104 329 123 432L231 991H399L295 438Q279 350 279 293Q279 121 436 121Q535 121
632 224T760 483L856 991Z" />
<glyph unicode="v" glyph-name="v" horiz-adv-x="931" d="M106 991H279L365 426Q370 385 378 329T390 240T395 182H401Q455 310 508 414L809 991H995L444 0H279L106 991Z" />
<glyph unicode="w" glyph-name="w" horiz-adv-x="1447" d="M125 991H293L328 434Q336 316 332 168H338Q373 269 446 416L739 991H889L950 426Q967 258 967 168H971Q1014 301 1065 420L1333 991H1505L1016 0H858L793 539Q778 664 778 803H774Q764 780 746 737T718
670T692 611T659 545L375 0H217L125 991Z" />
<glyph unicode="x" glyph-name="x" horiz-adv-x="903" d="M129 991H313L410 776Q449 686 475 616H481Q554 721 590 766L772 991H969L551 510L784 0H600L500 225Q468 296 430 401H424Q370 314 322 250L121 0H-76L358 512L129 991Z" />
<glyph unicode="y" glyph-name="y" horiz-adv-x="903" d="M98 991H274L373 459Q405 291 418 197H422Q503 387 528 440L782 991H963L590 238Q499 57 421 -67T248 -283Q174 -357 96 -399T-39 -455L-82 -307Q25 -272 100 -213Q216 -126 293 16Q303 36 297 61L98 991Z" />
<glyph unicode="z" glyph-name="z" horiz-adv-x="849" d="M-43 0L-25 104L457 641Q546 738 664 846V852H156L184 991H895L872 879L399 350Q304 248 195 145L193 139H743L715 0H-43Z" />
<glyph unicode="{" glyph-name="braceleft" horiz-adv-x="581" d="M68 541L86 645Q126 645 157 654T208 677T242 713T262 753T274 797Q284 851 291 965T309 1137Q334 1274 419 1339T635 1405H682L662 1294H625Q476 1294 440 1118Q431 1069 427 970T414 817Q382
629 227 594V590Q283 575 310 536T338 444Q338 366 287 217Q233 72 233 12Q233 -46 263 -81T356 -117H393L371 -227H334Q223 -227 159 -174T94 -18Q94 19 103 65T122 139T150 221Q152 227 159 249T169 279T178 306T186 334T193 359T198 385T201 407T203 430Q203
448 199 464T181 500T139 530T68 541Z" />
<glyph unicode="|" glyph-name="bar" horiz-adv-x="444" d="M195 1536H322V-512H195V1536Z" />
<glyph unicode="}" glyph-name="braceright" horiz-adv-x="581" d="M541 641L522 537Q472 537 437 524T381 487T351 439T334 383Q324 329 318 215T299 41Q274 -96 189 -161T-27 -227H-74L-53 -117H-16Q131 -117 168 61Q177 110 181 210T195 365Q225 547 381 588V592Q325
608 298 647T270 737Q270 753 272 772T277 805T288 846T298 882T311 923T324 961Q375 1112 375 1165Q375 1291 252 1294H215L238 1405H274Q385 1405 449 1352T514 1196Q514 1105 459 956Q413 825 408 776Q406 763 406 750Q406 732 410 716T427 681T469 651T541
641Z" />
<glyph unicode="~" glyph-name="asciitilde" horiz-adv-x="1220" d="M252 436H129Q125 579 193 657T371 735T645 649Q732 604 788 584T897 563Q1005 563 1008 729H1128Q1132 648 1115 588T1063 494T986 444T893 428Q779 428 608 520Q555 546 526 560T450 588T369
602Q316 602 285 558T252 436Z" />
</font>
</defs>
</svg>
