<?xml version="1.0" standalone="no"?> <!DOCTYPE svg PUBLIC "-//W3C//DTD SVG 1.0//EN" "../../../www.w3.org/TR/2001/REC-SVG-20010904/DTD/svg10.dtd" > <svg xmlns="http://www.w3.org/2000/svg" width="100%" height="100%">
<defs >
<font id="myriadprolight" horiz-adv-x="820" ><font-face
    font-family="Myriad Pro Light"
    units-per-em="2048"
    panose-1="2 11 4 3 3 4 3 2 2 4"
    ascent="1536"
    descent="-512"
    alphabetic="0" />
<missing-glyph horiz-adv-x="1024" d="M0 0V1434H1024V0H0ZM512 809L860 1331H164L512 809ZM573 717L922 195V1239L573 717ZM164 102H860L512 625L164 102ZM102 1239V195L451 717L102 1239Z" />
<glyph unicode=" " glyph-name="space" horiz-adv-x="448" />
<glyph unicode="!" glyph-name="exclam" horiz-adv-x="423" d="M250 362H170L150 1380H270L250 362ZM213 -23H211Q176 -23 153 3T131 68Q131 108 154 134T213 160Q251 160 273 135T295 68Q295 29 273 3T213 -23Z" />
<glyph unicode="&quot;" glyph-name="quotedbl" horiz-adv-x="616" d="M123 1417H240L215 965H150L123 1417ZM375 1417H492L467 965H401L375 1417Z" />
<glyph unicode="#" glyph-name="numbersign" horiz-adv-x="952" d="M342 502H571L612 840H383L342 502ZM279 0H193L246 422H76V502H256L299 840H119V920H309L362 1331H446L393 920H625L678 1331H760L709 920H879V840H698L655 502H838V422H645L592 0H508L561 422H332L279
0Z" />
<glyph unicode="$" glyph-name="dollar" horiz-adv-x="999" d="M522 -172H438V39Q359 39 280 64T147 131L190 207Q240 167 309 143T453 119Q575 119 651 189T727 365Q727 461 667 527T487 647Q324 718 246 795T168 991Q168 1113 247 1197T453 1300V1513H537V1303Q682
1297 782 1227L739 1151Q640 1223 504 1223Q384 1223 322 1158T260 1008Q260 915 317 859T518 739Q671 669 746 585T821 373Q821 252 742 158T522 41V-172Z" />
<glyph unicode="%" glyph-name="percent" horiz-adv-x="1509" d="M356 1354H358Q481 1354 557 1253T633 956Q633 754 552 647T346 539Q230 539 150 640T66 938Q66 1140 151 1247T356 1354ZM350 1284H348Q258 1284 206 1188T154 946Q151 801 204 705T348 608Q447
608 496 703T545 950Q545 1097 498 1190T350 1284ZM395 -27H315L1110 1358H1190L395 -27ZM1167 803H1169Q1292 803 1368 702T1444 406Q1444 203 1363 96T1157 -12Q1041 -12 961 89T877 387Q877 490 901 571T967 702T1060 777T1167 803ZM1161 733H1159Q1069 733
1017 637T965 395Q962 251 1015 154T1159 57Q1258 57 1307 152T1356 399Q1356 547 1309 640T1161 733Z" />
<glyph unicode="&amp;" glyph-name="ampersand" horiz-adv-x="1146" d="M1147 0H1024L872 156Q685 -23 453 -23Q285 -23 174 88T63 362Q63 610 336 770V776Q217 937 217 1077Q217 1161 252 1234T359 1355T528 1403Q641 1403 717 1327T793 1128Q793 1014 719 926T471
752V745L872 285Q968 429 1016 727H1108Q1050 380 928 227L1147 0ZM475 57H477Q579 57 666 100T817 215L381 709Q162 577 162 375Q162 236 250 147T475 57ZM514 1323H512Q416 1323 363 1255T309 1085Q309 1007 338 944T422 807Q562 881 631 951T700 1118Q700 1171
682 1215T621 1291T514 1323Z" />
<glyph unicode="&apos;" glyph-name="quotesingle" horiz-adv-x="364" d="M123 1417H240L215 965H150L123 1417Z" />
<glyph unicode="(" glyph-name="parenleft" horiz-adv-x="542" d="M426 1427H518Q380 1257 306 1053T231 582Q231 324 306 125T518 -252H426Q367 -178 321 -102T230 78T161 310T137 584T161 858T229 1092T320 1274T426 1427Z" />
<glyph unicode=")" glyph-name="parenright" horiz-adv-x="542" d="M117 -252H25Q160 -77 235 125T311 590Q311 850 237 1050T25 1427H117Q176 1353 222 1276T313 1096T381 863T406 588T382 314T314 82T223 -99T117 -252Z" />
<glyph unicode="*" glyph-name="asterisk" horiz-adv-x="800" d="M530 1403L621 1352L440 1102V1098L739 1122V1026L442 1051V1047L623 803L528 750L399 1020H395L254 748L174 803L352 1049V1053L61 1026V1122L350 1100V1104L174 1350L264 1401L397 1135H401L530 1403Z" />
<glyph unicode="+" glyph-name="plus" horiz-adv-x="1220" d="M567 1090H655V588H1139V506H655V0H567V506H84V588H567V1090Z" />
<glyph unicode="," glyph-name="comma" horiz-adv-x="356" d="M131 -248L53 -258Q78 -193 112 -56T160 176L289 197Q263 89 211 -55T131 -248Z" />
<glyph unicode="-" glyph-name="hyphen" horiz-adv-x="610" d="M61 606H549V520H61V606Z" />
<glyph unicode="." glyph-name="period" horiz-adv-x="356" d="M193 -23H190Q155 -23 132 4T111 70Q111 110 134 136T195 162Q231 162 253 136T276 70Q276 31 253 4T193 -23Z" />
<glyph unicode="../../default.htm" glyph-name="slash" horiz-adv-x="718" d="M72 -82H-23L629 1403H729L72 -82Z" />
<glyph unicode="0" glyph-name="zero" horiz-adv-x="999" d="M487 -23H485Q404 -23 334 17T206 138T115 352T78 659Q78 834 114 970T213 1189T351 1312T514 1354Q698 1354 810 1185T922 684Q922 335 806 156T487 -23ZM496 59H498Q606 59 679 138T785 352T819 674Q819
807 801 914T744 1103T644 1228T500 1272Q356 1272 268 1106T180 674Q176 396 262 228T496 59Z" />
<glyph unicode="1" glyph-name="one" horiz-adv-x="999" d="M483 0V1231H479L262 1104L238 1182L489 1331H580V0H483Z" />
<glyph unicode="2" glyph-name="two" horiz-adv-x="999" d="M887 0H94V59L217 186Q370 336 459 431T620 624T721 801T750 967Q750 1028 736 1078T691 1173T601 1243T461 1268Q314 1268 178 1153L139 1221Q288 1354 479 1354Q578 1354 653 1320T769 1229T830 1112T850
987Q850 910 826 833T764 688T653 533T510 371T326 184L231 86V82H887V0Z" />
<glyph unicode="3" glyph-name="three" horiz-adv-x="999" d="M92 68L131 145Q174 114 253 88T418 61Q496 61 557 82T654 135T714 209T746 291T754 369Q753 450 720 511T631 609T507 664T362 682H279V764H367Q424 764 481 780T588 828T669 913T700 1032Q700 1134
637 1202T442 1270Q307 1270 184 1178L145 1249Q198 1292 283 1323T455 1354Q546 1354 615 1328T724 1256T783 1157T803 1044Q803 942 739 859T555 729V725Q685 699 770 606T856 373Q856 296 828 227T747 101T605 11T406 -23Q311 -23 226 4T92 68Z" />
<glyph unicode="4" glyph-name="four" horiz-adv-x="999" d="M750 0H655V391H20V457L670 1331H750V473H952V391H750V0ZM137 473H655V1012Q655 1113 662 1196L655 1198Q609 1112 551 1030L137 477V473Z" />
<glyph unicode="5" glyph-name="five" horiz-adv-x="999" d="M831 1331V1245H330L264 817Q316 827 387 827Q521 827 635 770Q722 727 782 637T842 424Q842 293 781 190T618 32T393 -23Q297 -23 215 2T86 63L125 141Q171 109 243 85T399 61Q545 61 644 159T743
406Q741 558 645 650T358 743Q250 743 168 729L254 1331H831Z" />
<glyph unicode="6" glyph-name="six" horiz-adv-x="999" d="M799 1354V1264Q720 1264 655 1249Q517 1221 412 1135T249 932T178 682H182Q233 762 322 815T526 868Q707 868 815 749T924 440Q924 352 897 270T818 122T687 17T508 -23Q320 -23 198 125T76 537Q76
728 135 883T293 1141Q365 1216 461 1267T666 1337Q730 1354 799 1354ZM514 59H516Q652 59 736 161T821 432Q821 602 733 693T502 784Q408 784 326 732T197 592Q174 551 174 514Q174 308 263 184T514 59Z" />
<glyph unicode="7" glyph-name="seven" horiz-adv-x="999" d="M127 1331H905V1262L305 0H209L803 1245V1249H127V1331Z" />
<glyph unicode="8" glyph-name="eight" horiz-adv-x="999" d="M512 1354H514Q675 1354 771 1261T868 1034Q868 940 814 856T633 715V707Q772 652 843 562T915 354Q915 190 792 84T498 -23Q320 -23 201 78T82 332Q82 458 155 552T360 702V711Q245 760 190 840T135
1012Q135 1161 243 1257T512 1354ZM496 59H498Q642 59 728 138T815 340Q815 474 731 549T473 674Q334 632 259 548T184 352Q178 230 264 145T496 59ZM506 1274H504Q377 1274 304 1203T231 1026Q230 912 305 845T524 741Q768 827 768 1026Q768 1073 753 1116T708
1195T626 1252T506 1274Z" />
<glyph unicode="9" glyph-name="nine" horiz-adv-x="999" d="M205 -23V68Q256 62 356 78Q524 103 645 233Q792 392 825 655L819 653Q685 481 475 481Q356 481 268 539T138 687T96 885Q96 1008 147 1114T298 1287T522 1354Q700 1354 812 1208T924 799Q924 588 861
429T696 168Q633 102 550 57T385 -4Q272 -26 205 -23ZM506 1272H504Q368 1272 282 1164T195 891Q195 744 278 655T494 565Q597 565 681 613T809 737Q827 775 827 797Q827 1015 746 1143T506 1272Z" />
<glyph unicode=":" glyph-name="colon" horiz-adv-x="356" d="M193 739H190Q155 739 132 766T111 831Q111 872 134 898T195 924Q231 924 253 898T276 831Q276 793 253 766T193 739ZM193 -23H190Q155 -23 132 4T111 70Q111 110 134 136T195 162Q231 162 253 136T276
70Q276 31 253 4T193 -23Z" />
<glyph unicode=";" glyph-name="semicolon" horiz-adv-x="356" d="M131 -246L53 -256Q78 -191 112 -54T160 178L287 199Q263 91 211 -53T131 -246ZM211 739H209Q174 739 151 766T129 831Q129 872 152 898T213 924T272 898T295 831Q295 793 272 766T211 739Z" />
<glyph unicode="&lt;" glyph-name="less" horiz-adv-x="1220" d="M145 508V580L1075 1087V993L240 545V541L1075 94V0L145 508Z" />
<glyph unicode="=" glyph-name="equal" horiz-adv-x="1220" d="M1139 707H82V788H1139V707ZM1139 317H82V399H1139V317Z" />
<glyph unicode="&gt;" glyph-name="greater" horiz-adv-x="1220" d="M1075 580V508L145 0V94L981 541V545L145 993V1087L1075 580Z" />
<glyph unicode="?" glyph-name="question" horiz-adv-x="780" d="M385 358H295L287 412Q260 592 418 786Q502 885 538 957T575 1108Q575 1204 518 1260T352 1317Q296 1317 239 1299T145 1251L106 1323Q155 1361 229 1383T371 1405Q521 1405 600 1320T680 1114Q680
1025 638 944T504 752Q430 661 402 584T381 420L385 358ZM336 -23H334Q299 -23 276 4T254 70Q254 110 277 136T338 162Q374 162 397 136T420 70Q420 31 397 4T336 -23Z" />
<glyph unicode="@" glyph-name="at" horiz-adv-x="1468" d="M926 528L977 782Q933 803 852 803Q750 803 662 746T522 591T471 383Q471 306 512 259T629 211Q696 211 762 263T871 388T926 528ZM1016 -57L1044 -127Q894 -215 688 -215Q563 -215 452 -170T258 -43T127
160T78 424Q78 583 130 726T277 978T511 1150T815 1214Q989 1214 1121 1137T1324 927T1395 623Q1395 509 1365 415T1286 261T1175 168T1047 135Q985 135 942 184T909 328H903Q843 229 769 182T596 135Q509 135 445 204T381 385Q381 513 444 626T621 809T868 879Q979
879 1073 840L999 473Q947 216 1067 213Q1158 210 1230 321T1303 604Q1303 847 1170 993T801 1139Q672 1139 557 1089T356 948T220 723T170 430Q170 305 210 199T321 20T488 -94T698 -135Q882 -135 1016 -57Z" />
<glyph unicode="A" glyph-name="A" horiz-adv-x="1198" d="M879 483H332L162 0H61L561 1380H655L1153 0H1053L879 483ZM362 565H848L680 1026Q651 1111 608 1270H604Q582 1181 532 1030L362 565Z" />
<glyph unicode="B" glyph-name="B" horiz-adv-x="1034" d="M166 0V1360Q300 1391 444 1391Q693 1391 805 1276Q891 1193 891 1051Q891 947 825 864T653 743V737Q702 726 749 702T842 637T917 531T946 385Q946 230 844 121Q713 -10 406 -10Q360 -10 314 -8T225
-4T166 0ZM264 1294V774H465Q613 774 702 851T791 1044Q791 1309 438 1309Q316 1309 264 1294ZM264 694V82Q315 72 434 72Q500 72 558 81T669 114T761 171T821 260T844 383Q844 462 812 523T723 620T594 675T438 694H264Z" />
<glyph unicode="C" glyph-name="C" horiz-adv-x="1167" d="M1073 127L1102 49Q1044 20 946 0T729 -20Q627 -20 533 5T355 86T210 223T112 422T76 682Q76 888 159 1050T402 1306T776 1401Q979 1401 1096 1341L1065 1260Q944 1319 778 1319Q499 1319 339 1149T178
680Q178 396 332 230T762 63Q942 63 1073 127Z" />
<glyph unicode="D" glyph-name="D" horiz-adv-x="1325" d="M166 0V1360Q349 1391 520 1391Q899 1391 1077 1202Q1249 1024 1249 723Q1249 398 1069 201Q977 100 824 45T473 -10Q291 -10 166 0ZM264 1286V82Q333 72 487 72Q813 72 981 242T1149 719Q1151 852 1114
959T1000 1145T801 1266T514 1309Q379 1309 264 1286Z" />
<glyph unicode="E" glyph-name="E" horiz-adv-x="954" d="M815 768V686H264V82H881V0H166V1380H848V1298H264V768H815Z" />
<glyph unicode="F" glyph-name="F" horiz-adv-x="946" d="M166 0V1380H848V1298H264V750H801V668H264V0H166Z" />
<glyph unicode="G" glyph-name="G" horiz-adv-x="1277" d="M1157 684V59Q975 -14 754 -14Q453 -14 266 166Q178 251 127 386T76 686Q76 831 123 958T260 1184T487 1338T797 1395Q898 1395 984 1376T1118 1333L1085 1253Q963 1313 791 1313Q509 1313 344 1143T178
690Q178 399 337 234T770 68Q973 68 1059 117V604H739V684H1157Z" />
<glyph unicode="H" glyph-name="H" horiz-adv-x="1290" d="M166 1380H264V772H1026V1380H1124V0H1026V690H264V0H166V1380Z" />
<glyph unicode="I" glyph-name="I" horiz-adv-x="432" d="M166 1380H264V0H166V1380Z" />
<glyph unicode="J" glyph-name="J" horiz-adv-x="706" d="M457 449V1380H555V426Q555 299 525 208T442 69T325 -1T182 -23Q86 -23 14 10L35 88Q102 61 180 61Q249 61 298 78T384 139T439 259T457 449Z" />
<glyph unicode="K" glyph-name="K" horiz-adv-x="1019" d="M166 0V1380H264V682H270Q306 729 389 825L879 1380H997L473 795L1047 0H930L406 727L264 571V0H166Z" />
<glyph unicode="L" glyph-name="L" horiz-adv-x="917" d="M166 0V1380H264V82H879V0H166Z" />
<glyph unicode="M" glyph-name="M" horiz-adv-x="1593" d="M1372 0L1331 653Q1303 1136 1303 1266H1298Q1197 968 1112 750L821 0H754L481 733Q348 1101 303 1266H299Q291 946 268 635L225 0H129L229 1380H342L639 584Q731 341 791 137H797Q829 255 950 584L1260
1380H1376L1468 0H1372Z" />
<glyph unicode="N" glyph-name="N" horiz-adv-x="1306" d="M262 0H168V1380H260L797 565Q974 293 1057 131L1061 133Q1044 359 1044 692V1380H1139V0H1049L522 803Q453 910 420 963T337 1099T254 1249L250 1247Q262 1043 262 698V0Z" />
<glyph unicode="O" glyph-name="O" horiz-adv-x="1374" d="M682 -23H680Q553 -23 443 26T251 165T123 386T76 676Q76 842 124 980T256 1210T453 1352T696 1403Q960 1403 1129 1212T1298 705Q1298 528 1247 387T1109 157T913 23T682 -23ZM684 59H686Q806 59 903
110T1064 250T1162 454T1196 698Q1196 787 1177 874T1117 1043T1018 1185T875 1284T690 1321Q588 1321 503 1285T358 1188T258 1045T198 870T178 680Q178 586 199 496T262 327T364 188T506 94T684 59Z" />
<glyph unicode="P" glyph-name="P" horiz-adv-x="1028" d="M166 0V1364Q320 1391 463 1391Q708 1391 827 1274Q934 1173 934 1004Q934 834 838 727Q773 653 667 613T432 573Q320 573 264 590V0H166ZM264 1292V676Q322 655 440 655Q628 655 732 742T836 993Q836
1150 734 1229T459 1309Q343 1309 264 1292Z" />
<glyph unicode="Q" glyph-name="Q" horiz-adv-x="1374" d="M1313 -90L1282 -180Q1052 -128 764 -41Q699 -23 686 -23Q558 -20 448 28T255 162T124 381T76 674Q76 843 124 982T256 1212T454 1353T698 1403Q870 1403 1006 1318T1220 1074T1298 705Q1298 428 1181
252T862 12V4Q1201 -72 1313 -90ZM682 59H684Q842 59 960 148T1137 380T1196 698Q1196 787 1177 874T1118 1043T1019 1185T877 1284T694 1321Q591 1321 505 1285T360 1187T259 1042T198 867T178 676Q178 558 212 448T308 251T468 112T682 59Z" />
<glyph unicode="R" glyph-name="R" horiz-adv-x="1034" d="M166 0V1362Q305 1391 465 1391Q720 1391 838 1276Q882 1233 908 1168T934 1030Q934 896 862 805T664 670V666Q825 615 877 373Q944 66 979 0H879Q850 52 791 336Q758 487 687 557T479 633H264V0H166ZM264
1292V713H483Q643 713 739 795T836 1014Q836 1166 736 1238T463 1311Q347 1311 264 1292Z" />
<glyph unicode="S" glyph-name="S" horiz-adv-x="950" d="M86 72L123 152Q254 61 424 61Q578 61 668 140T758 348Q758 464 693 538T477 670Q303 733 213 824T123 1051Q123 1203 235 1302T524 1401Q614 1401 686 1382T799 1337L762 1253Q727 1278 663 1298T518
1319T378 1296T284 1234T235 1153T219 1067Q219 956 285 889T506 760Q686 687 770 596T854 358Q854 198 740 89T416 -20Q326 -20 233 6T86 72Z" />
<glyph unicode="T" glyph-name="T" horiz-adv-x="952" d="M428 0V1298H-23V1380H977V1298H526V0H428Z" />
<glyph unicode="U" glyph-name="U" horiz-adv-x="1282" d="M166 1380H264V547Q264 419 292 323T372 171T487 87T631 59Q811 59 914 180T1018 547V1380H1116V555Q1116 431 1090 333T1019 168T911 59T778 -4T627 -23Q552 -23 486 -6T361 53T259 158T191 319T166 541V1380Z" />
<glyph unicode="V" glyph-name="V" horiz-adv-x="1042" d="M551 0H459L0 1380H102L346 641Q469 268 508 113H514Q562 294 690 641L958 1380H1063L551 0Z" />
<glyph unicode="W" glyph-name="W" horiz-adv-x="1679" d="M487 0H395L31 1380H131L332 602Q424 238 446 129H451Q475 272 578 602L803 1380H897L1102 608Q1191 275 1214 129H1219Q1230 182 1246 248T1272 350T1309 483T1343 604L1571 1380H1671L1257 0H1163L956
795Q872 1103 850 1262H846Q818 1110 723 797L487 0Z" />
<glyph unicode="X" glyph-name="X" horiz-adv-x="1118" d="M1055 0H942L733 340Q620 509 551 627H547Q461 474 373 338L174 0H61L500 698L80 1380H190L414 1012Q500 873 555 774H559Q591 833 705 1012L936 1380H1051L610 709L1055 0Z" />
<glyph unicode="Y" glyph-name="Y" horiz-adv-x="1030" d="M567 0H469V598L31 1380H139L367 969Q478 763 524 672H528Q547 714 569 757T633 873T688 971L924 1380H1032L567 596V0Z" />
<glyph unicode="Z" glyph-name="Z" horiz-adv-x="1103" d="M70 0V63L901 1292V1298H137V1380H1026V1315L193 88V82H1036V0H70Z" />
<glyph unicode="[" glyph-name="bracketleft" horiz-adv-x="542" d="M535 -229H184V1405H535V1329H274V-154H535V-229Z" />
<glyph unicode="\" glyph-name="backslash" horiz-adv-x="712" d="M735 -82H637L-10 1403H88L735 -82Z" />
<glyph unicode="]" glyph-name="bracketright" horiz-adv-x="542" d="M12 1405H360V-229H12V-154H270V1329H12V1405Z" />
<glyph unicode="^" glyph-name="asciicircum" horiz-adv-x="1220" d="M1075 401H981L614 1237H610L242 401H147L567 1331H655L1075 401Z" />
<glyph unicode="_" glyph-name="underscore" horiz-adv-x="1024" d="M0 -154H1024V-256H0V-154Z" />
<glyph unicode="`" glyph-name="grave" horiz-adv-x="614" d="M68 1409H211L393 1126H317L68 1409Z" />
<glyph unicode="a" glyph-name="a" horiz-adv-x="929" d="M778 618V233Q778 88 793 0H702L688 141H684Q641 75 559 26T369 -23Q230 -23 155 58T80 248Q80 422 232 516T680 608V635Q680 664 678 690T667 752T642 817T598 871T528 910T428 924Q284 924 180 850L150
922Q278 1006 438 1006Q520 1006 582 982T681 921T740 830T770 726T778 618ZM680 315V526Q630 527 585 526T488 518T394 500T311 468T243 421T199 353T182 264Q182 164 239 112T379 59Q493 59 567 116T670 256Q680 281 680 315Z" />
<glyph unicode="b" glyph-name="b" horiz-adv-x="1130" d="M164 229V1456H262V799H266Q317 897 408 951T627 1006Q812 1006 929 865T1047 502Q1047 376 1009 274T908 108T768 11T608 -23Q373 -23 256 176H252L244 0H156Q164 93 164 229ZM262 575V379Q262 340 270
307Q302 195 390 127T594 59Q759 59 853 181T948 500Q948 615 909 710T790 864T602 924Q492 924 401 853T274 662Q262 612 262 575Z" />
<glyph unicode="c" glyph-name="c" horiz-adv-x="913" d="M817 121L844 43Q709 -20 555 -20Q344 -20 214 119T84 481Q84 715 226 860T590 1006Q673 1006 744 987T848 944L813 864Q719 922 582 922Q486 922 409 887T282 792T208 655T182 489Q182 297 290 180T571
63Q694 63 817 121Z" />
<glyph unicode="d" glyph-name="d" horiz-adv-x="1114" d="M852 1456H950V227Q950 93 958 0H870L862 186H858Q816 97 726 37T508 -23Q324 -23 204 116T84 473Q83 712 211 859T526 1006Q645 1006 728 955T848 831H852V1456ZM852 397V594Q852 648 842 684Q816 786
732 855T532 924Q373 924 278 801T182 483Q182 398 203 323T266 189T374 94T526 59Q635 59 723 128T842 315Q852 346 852 397Z" />
<glyph unicode="e" glyph-name="e" horiz-adv-x="993" d="M905 502H180Q180 388 209 302T291 164T410 88T555 63Q713 63 827 119L852 43Q735 -20 543 -20Q333 -20 209 117T84 473Q84 715 208 860T526 1006Q618 1006 689 973T800 891T866 778T900 662T909 561Q909
520 905 502ZM186 580H807Q808 625 801 669T773 760T721 842T636 901T514 924Q437 924 375 892T275 808T216 698T186 580Z" />
<glyph unicode="f" glyph-name="f" horiz-adv-x="536" d="M270 0H172V903H31V983H172V1036Q172 1282 281 1391Q370 1477 500 1477Q587 1477 647 1442L616 1368Q562 1395 492 1395Q438 1395 398 1376T334 1325T295 1245T275 1148T270 1038V983H532V903H270V0Z" />
<glyph unicode="g" glyph-name="g" horiz-adv-x="1114" d="M950 729V143Q950 -36 916 -142T815 -311Q752 -371 663 -399T481 -428Q393 -428 308 -406T168 -342L203 -264Q329 -346 496 -346Q661 -346 756 -251T852 51V190H848Q806 108 718 54T506 0Q385 0 288 64T137
239T84 483Q84 607 122 708T224 873T365 971T526 1006Q595 1006 653 989T750 942T815 882T858 817H862L868 983H958Q950 884 950 729ZM852 408V604Q852 666 840 700Q806 796 728 860T535 924Q377 924 280 806T182 494Q182 380 220 289T338 140T530 82Q631 82 714
141T836 303Q852 356 852 408Z" />
<glyph unicode="h" glyph-name="h" horiz-adv-x="1097" d="M166 0V1456H264V807H268Q314 895 401 948Q497 1006 600 1006Q634 1006 671 999T759 965T848 897T914 775T942 592V0H844V582Q844 651 830 709T785 816T700 892T573 920Q472 920 391 857T276 698Q264
662 264 600V0H166Z" />
<glyph unicode="i" glyph-name="i" horiz-adv-x="428" d="M264 0H166V983H264V0ZM213 1180H211Q178 1180 157 1204T135 1264Q135 1298 158 1324T215 1350T270 1325T293 1264Q293 1229 271 1205T213 1180Z" />
<glyph unicode="j" glyph-name="j" horiz-adv-x="438" d="M-86 -428L-100 -348Q37 -342 104 -266Q145 -218 161 -136T178 133V983H276V68Q276 -74 254 -165T172 -322Q124 -374 49 -400T-86 -428ZM225 1180H223Q190 1180 169 1205T147 1264Q147 1299 170 1324T229
1350Q262 1350 283 1325T305 1264Q305 1230 284 1205T225 1180Z" />
<glyph unicode="k" glyph-name="k" horiz-adv-x="866" d="M262 1456V510H266Q311 565 360 618L709 983H827L430 575L883 0H764L362 516L262 410V0H164V1456H262Z" />
<glyph unicode="l" glyph-name="l" horiz-adv-x="434" d="M166 0V1456H264V0H166Z" />
<glyph unicode="m" glyph-name="m" horiz-adv-x="1677" d="M166 0V748Q166 879 158 983H250L256 811H260Q370 1006 580 1006Q678 1006 753 947T862 793H866Q904 873 967 926Q1066 1006 1200 1006Q1235 1006 1271 998T1354 963T1436 891T1497 767T1522 580V0H1423V571Q1423
740 1358 832T1167 924Q1079 924 1010 868T909 729Q893 671 893 631V0H795V616Q795 753 732 838T551 924Q457 924 383 859T279 702Q264 655 264 606V0H166Z" />
<glyph unicode="n" glyph-name="n" horiz-adv-x="1097" d="M166 0V748Q166 879 158 983H250L256 807H260Q302 894 392 950T598 1006Q633 1006 670 999T759 965T848 896T914 774T942 590V0H844V582Q844 653 830 712T784 820T699 896T571 924Q470 924 388 859T276
696Q264 652 264 610V0H166Z" />
<glyph unicode="o" glyph-name="o" horiz-adv-x="1089" d="M537 -23H535Q341 -23 213 117T84 483Q84 605 122 705T225 871T373 971T549 1006Q753 1006 879 866T1006 500Q1006 394 978 306T904 158T796 57T669 -4T537 -23ZM539 59H541Q695 59 801 183T907 496Q907
552 895 609T855 724T787 825T684 896T547 924Q456 924 384 886T269 785T204 647T182 489Q182 306 285 183T539 59Z" />
<glyph unicode="p" glyph-name="p" horiz-adv-x="1130" d="M164 -406V670Q164 858 156 983H250L256 797H260Q377 1006 625 1006Q813 1006 930 866T1047 508Q1047 381 1011 278T913 111T770 12T600 -23Q493 -23 405 24T266 160H262V-406H164ZM262 580V387Q262 342
270 309Q301 196 390 128T594 59Q760 59 854 181T948 504Q948 617 909 711T790 864T602 924Q492 924 400 853T276 664Q262 601 262 580Z" />
<glyph unicode="q" glyph-name="q" horiz-adv-x="1110" d="M852 -406V170H848Q807 89 719 33T508 -23Q325 -23 205 116T84 473Q84 609 125 715T233 882T378 975T537 1006Q656 1006 738 951T858 815H862L868 983H958Q950 884 950 729V-406H852ZM852 385V596Q852
650 842 684Q814 786 732 855T535 924Q375 924 279 802T182 485Q182 400 202 326T263 191T371 95T526 59Q629 59 712 119T834 289Q852 339 852 385Z" />
<glyph unicode="r" glyph-name="r" horiz-adv-x="604" d="M164 0V688Q164 855 156 983H246L250 784H256Q290 882 364 944T535 1006Q555 1006 575 1001V909Q561 911 528 911Q429 911 360 835T270 637Q262 598 262 543V0H164Z" />
<glyph unicode="s" glyph-name="s" horiz-adv-x="763" d="M90 47L125 129Q234 61 346 61T516 113T575 248Q575 327 527 377T369 471Q119 565 119 739Q119 851 201 928T422 1006Q552 1006 639 944L602 864Q518 924 406 924Q316 924 266 875T215 754Q215 682 261
640T418 553Q546 502 609 435T672 260Q672 134 581 57T340 -20Q198 -20 90 47Z" />
<glyph unicode="t" glyph-name="t" horiz-adv-x="632" d="M203 1163L301 1200V983H582V903H301V264Q301 61 444 61Q510 61 557 76L569 2Q510 -20 432 -20Q319 -20 264 47Q203 116 203 283V903H37V983H203V1163Z" />
<glyph unicode="u" glyph-name="u" horiz-adv-x="1087" d="M924 983V240Q924 101 932 0H840L834 176H829Q786 95 700 36T494 -23Q451 -23 411 -14T323 23T240 98T182 225T158 412V983H256V430Q256 63 516 63Q616 63 693 121T807 262Q825 318 825 371V983H924Z" />
<glyph unicode="v" glyph-name="v" horiz-adv-x="925" d="M31 983H135L365 373Q431 205 461 111H465Q481 160 565 373L799 983H901L502 0H416L31 983Z" />
<glyph unicode="w" glyph-name="w" horiz-adv-x="1478" d="M47 983H147L313 424Q379 194 397 117H401Q430 220 500 424L696 983H788L977 430Q1039 246 1073 117H1077Q1103 230 1167 426L1341 983H1442L1114 0H1030L844 549Q770 764 741 883H737Q704 749 631 545L436
0H350L47 983Z" />
<glyph unicode="x" glyph-name="x" horiz-adv-x="878" d="M43 983H154L322 743Q368 682 434 575H438Q466 620 553 743L721 983H829L487 504L842 0H729L555 248Q528 285 484 353T432 432H428Q397 379 305 248L133 0H23L383 502L43 983Z" />
<glyph unicode="y" glyph-name="y" horiz-adv-x="901" d="M23 983H127L385 340Q418 255 457 129H461Q518 296 537 346L776 983H881L586 250Q488 -2 417 -136T254 -350Q179 -413 82 -453L51 -371Q145 -334 223 -262Q326 -159 387 -14Q399 16 399 29Q399 40 387 72L23 983Z" />
<glyph unicode="z" glyph-name="z" horiz-adv-x="825" d="M33 0V59L563 758L676 899V903H76V983H795L793 918L262 219Q253 208 217 159T158 84V80H797V0H33Z" />
<glyph unicode="{" glyph-name="braceleft" horiz-adv-x="542" d="M53 553L55 625Q108 624 144 636T197 674T220 725T227 786Q227 859 209 963Q188 1087 188 1141Q188 1274 267 1339T477 1405H502V1329H465Q365 1328 322 1280T279 1133Q279 1064 297 969Q315 843
315 805Q315 719 280 665T184 592V588Q244 570 279 515T315 375Q315 330 297 211Q279 112 279 43Q279 -151 465 -154H502V-229H477Q346 -229 267 -162T188 51Q188 108 209 223Q227 327 227 393Q227 558 53 553Z" />
<glyph unicode="|" glyph-name="bar" horiz-adv-x="434" d="M172 1536H260V-512H172V1536Z" />
<glyph unicode="}" glyph-name="braceright" horiz-adv-x="542" d="M489 625L487 553Q435 554 399 540T345 500T322 449T315 393Q315 324 336 223Q354 99 354 51Q354 -95 275 -162T66 -229H41V-154H78Q264 -151 264 43Q264 112 246 211Q227 337 227 375Q227 458
263 514T358 588V592Q298 611 263 665T227 805Q227 836 246 969Q264 1064 264 1133Q264 1231 221 1279T78 1329H41V1405H66Q196 1405 275 1340T354 1141Q354 1096 336 963Q315 862 315 786Q315 752 321 726T345 674T399 637T489 625Z" />
<glyph unicode="~" glyph-name="asciitilde" horiz-adv-x="1220" d="M184 453H106Q99 572 163 645T326 719Q381 719 438 701T618 629Q693 596 727 582T814 554T909 539Q975 539 1007 586T1038 717H1114Q1118 647 1102 595T1054 512T984 466T901 451Q848 451 782
470T600 539Q585 546 551 561T501 583T457 601T410 618T367 627T322 631Q255 631 220 585T184 453Z" />
</font>
</defs>
</svg>
