<svg id="logo" role="img" aria-labelledby="pfsense-logo" x="0px" y="0px" viewBox="0 0 282.8 84.2">
	<title id="pfsense-logo-svg">pfSense Logo</title>
	<path class="logo-st0" d="M27.8,57.7c2.9,0,5.4-0.9,7.5-2.6c2.1-1.7,3.6-4,4.4-6.8c0.8-2.8,0.6-5.1-0.5-6.8c-1.1-1.7-3.2-2.6-6.1-2.6 c-2.9,0-5.4,0.9-7.5,2.6c-2.1,1.7-3.5,4-4.3,6.8c-0.8,2.8-0.7,5.1,0.5,6.8C22.8,56.9,24.8,57.7,27.8,57.7"/>
	<path class="logo-st0" d="M115.1,46.6c-1.5-0.8-3-1.4-4.7-1.8c-1.7-0.4-3.2-0.7-4.7-1.1c-1.5-0.3-2.7-0.7-3.6-1.1c-0.9-0.4-1.4-1.1-1.4-2 c0-1.1,0.5-1.9,1.4-2.4c0.9-0.5,1.9-0.7,2.8-0.7c2.8,0,5,1,6.7,3.1l7-7c-1.7-1.8-3.9-3.1-6.4-3.8c-2.5-0.7-5-1.1-7.4-1.1 c-1.9,0-3.9,0.2-5.7,0.7c-1.9,0.5-3.6,1.2-5,2.3c-1.5,1-2.6,2.3-3.5,3.9c-0.9,1.6-1.3,3.5-1.3,5.7c0,2.3,0.5,4.2,1.4,5.6 c0.9,1.4,2.1,2.5,3.6,3.3c1.5,0.8,3,1.3,4.7,1.7c1.7,0.4,3.2,0.7,4.7,1.1c1.5,0.3,2.7,0.7,3.6,1.2c0.9,0.5,1.4,1.2,1.4,2.2 c0,1-0.5,1.7-1.6,2.1c-1.1,0.4-2.3,0.6-3.6,0.6c-1.7,0-3.3-0.3-4.6-1c-1.3-0.7-2.5-1.7-3.6-3l-7,7.7c1.8,1.9,4.1,3.2,6.7,3.9 c2.7,0.7,5.3,1.1,7.9,1.1c2,0,4-0.2,6.1-0.6c2-0.4,3.9-1,5.5-2c1.6-0.9,3-2.2,4-3.8c1-1.6,1.6-3.5,1.6-5.9c0-2.3-0.5-4.2-1.4-5.6 C117.7,48.6,116.5,47.4,115.1,46.6"/>
	<path class="logo-st0" d="M156.3,34.1c-1.5-1.7-3.3-3-5.5-3.9c-2.2-0.9-4.6-1.4-7.2-1.4c-2.9,0-5.6,0.5-8.1,1.4c-2.5,0.9-4.7,2.2-6.6,3.9 c-1.9,1.7-3.3,3.8-4.4,6.2c-1.1,2.4-1.6,5.1-1.6,8c0,3,0.5,5.6,1.6,8c1.1,2.4,2.5,4.5,4.4,6.2c1.9,1.7,4.1,3,6.6,3.9 c2.5,0.9,5.2,1.4,8.1,1.4c3,0,5.9-0.6,8.7-1.9c2.8-1.3,5.1-3.1,7-5.4l-8-5.9c-1,1.3-2.1,2.4-3.4,3.3c-1.3,0.8-2.9,1.3-4.8,1.3 c-2.2,0-4.1-0.7-5.7-2c-1.5-1.3-2.5-3.1-3-5.2H161v-3.6c0-3-0.4-5.6-1.2-8C159,37.9,157.8,35.8,156.3,34.1 M134.3,44.1 c0.1-0.9,0.3-1.8,0.7-2.6c0.4-0.8,0.9-1.6,1.6-2.2c0.7-0.6,1.5-1.2,2.5-1.6c1-0.4,2.1-0.6,3.4-0.6c2.1,0,3.8,0.7,5.1,2.1 c1.3,1.4,2,3,1.9,5H134.3z"/>
	<path class="logo-st0" d="M198.3,33.8c-1-1.6-2.4-2.8-4.2-3.7c-1.8-0.9-4.1-1.3-7-1.3c-1.4,0-2.7,0.2-3.8,0.5c-1.2,0.4-2.2,0.8-3.1,1.4 c-0.9,0.6-1.7,1.2-2.4,1.9c-0.7,0.7-1.2,1.4-1.5,2.1H176v-5.1h-11v37.2h11.5V48.4c0-1.2,0.1-2.4,0.2-3.5c0.2-1.1,0.5-2.1,1-3 c0.5-0.9,1.2-1.6,2.1-2.1c0.9-0.5,2.1-0.8,3.6-0.8c1.5,0,2.6,0.3,3.4,0.9c0.8,0.6,1.4,1.4,1.8,2.4c0.4,1,0.6,2,0.7,3.2 c0.1,1.1,0.1,2.3,0.1,3.3v18.2h11.5V46.4c0-2.5-0.2-4.8-0.5-7C199.9,37.3,199.3,35.4,198.3,33.8"/>
	<path class="logo-st0" d="M231.5,46.6c-1.5-0.8-3-1.4-4.7-1.8c-1.7-0.4-3.2-0.7-4.7-1.1c-1.5-0.3-2.7-0.7-3.6-1.1c-0.9-0.4-1.4-1.1-1.4-2 c0-1.1,0.5-1.9,1.4-2.4c0.9-0.5,1.9-0.7,2.8-0.7c2.8,0,5,1,6.7,3.1l7-7c-1.7-1.8-3.9-3.1-6.4-3.8c-2.5-0.7-5-1.1-7.4-1.1 c-1.9,0-3.9,0.2-5.7,0.7c-1.9,0.5-3.6,1.2-5,2.3c-1.5,1-2.6,2.3-3.5,3.9c-0.9,1.6-1.3,3.5-1.3,5.7c0,2.3,0.5,4.2,1.4,5.6 c0.9,1.4,2.1,2.5,3.6,3.3c1.5,0.8,3,1.3,4.7,1.7c1.7,0.4,3.2,0.7,4.7,1.1c1.5,0.3,2.7,0.7,3.6,1.2c0.9,0.5,1.4,1.2,1.4,2.2 c0,1-0.5,1.7-1.6,2.1c-1.1,0.4-2.3,0.6-3.6,0.6c-1.7,0-3.3-0.3-4.6-1c-1.3-0.7-2.5-1.7-3.6-3l-7,7.7c1.8,1.9,4.1,3.2,6.7,3.9 c2.7,0.7,5.3,1.1,7.9,1.1c2,0,4-0.2,6.1-0.6c2-0.4,3.9-1,5.5-2c1.6-0.9,3-2.2,4-3.8c1-1.6,1.6-3.5,1.6-5.9c0-2.3-0.5-4.2-1.4-5.6 C234.1,48.6,232.9,47.4,231.5,46.6"/>
	<path class="logo-st0" d="M277.4,51.9v-4.2c-0.1-2.7-0.5-5.2-1.2-7.4c-0.8-2.4-2-4.5-3.5-6.2c-1.5-1.7-3.3-3-5.5-3.9 c-2.2-0.9-4.6-1.4-7.2-1.4c-2.9,0-5.6,0.5-8.1,1.4c-2.5,0.9-4.7,2.2-6.6,3.9c-1.9,1.7-3.3,3.8-4.4,6.2c-1.1,2.4-1.6,5.1-1.6,8 c0,3,0.5,5.6,1.6,8c1.1,2.4,2.5,4.5,4.4,6.2c1.9,1.7,4.1,3,6.6,3.9c2.5,0.9,5.2,1.4,8.1,1.4c3,0,5.9-0.6,8.7-1.9 c2.8-1.3,5.1-3.1,7-5.4l-8-5.9c-1,1.3-2.1,2.4-3.4,3.3c-1.3,0.8-2.9,1.3-4.8,1.3c-2.2,0-4.1-0.7-5.7-2c-1.5-1.3-2.5-3.1-3-5.2H277.4 z M250.7,44.1c0.1-0.9,0.3-1.8,0.7-2.6c0.4-0.8,0.9-1.6,1.6-2.2c0.7-0.6,1.5-1.2,2.5-1.6c1-0.4,2.1-0.6,3.4-0.6 c2.1,0,3.8,0.7,5.1,2.1c1.3,1.4,2,3,1.9,5H250.7z"/>
	<path class="logo-st1" d="M52.6,38.9l2.6-9.2h4.6l1.8-6.6c0.6-2,1.3-4,2.2-5.8c0.8-1.8,2-3.4,3.4-4.8c1.4-1.4,3.2-2.5,5.3-3.3 c2.1-0.8,4.8-1.2,7.9-1.2c0.8,0,1.5,0,2.3,0.1c-0.7-2.9-3.3-5-6.3-5.1H11.9c-3.6,0-6.5,3-6.5,6.6V67l10.5-37.3h10.6l-1.4,4.9h0.2 c0.6-0.7,1.4-1.3,2.4-2c1-0.7,2-1.3,3.1-1.9c1.1-0.6,2.3-1,3.6-1.4c1.3-0.4,2.6-0.5,3.9-0.5c2.8,0,5.1,0.5,7.1,1.4 c2,0.9,3.5,2.3,4.7,4c1,1.5,1.6,3.3,1.9,5.4l0.8-0.6H52.6z"/>
	<path class="logo-st2" d="M82.1,17.9c-0.5-0.1-1.1-0.2-1.8-0.2c-1.8,0-3.3,0.4-4.5,1.2c-1.1,0.8-2.1,2.4-2.8,4.9l-1.7,5.9h6.5l1.6,5.1 l-4.2,4.1h-6.5l-7.9,28H49.4l7.9-28h-4.4L52,39.5c0,0.2,0.1,0.5,0.1,0.7c0.2,2.3-0.1,4.9-0.9,7.7c-0.7,2.6-1.8,5.1-3.3,7.5 c-1.5,2.4-3.2,4.5-5.1,6.3c-2,1.8-4.2,3.3-6.6,4.4c-2.4,1.1-4.9,1.6-7.6,1.6c-2.4,0-4.5-0.4-6.4-1.1c-1.9-0.7-3.2-2-4-3.8h-0.2 l-5,17.7h63.3c3.6,0,6.6-2.9,6.6-6.6V18.2C82.6,18.1,82.3,18,82.1,17.9"/>
	<path class="logo-st0" d="M277.6,68.5h0.8c0.4,0,0.6-0.1,0.7-0.2c0.1-0.1,0.2-0.2,0.2-0.4c0-0.1,0-0.2-0.1-0.3c-0.1-0.1-0.1-0.2-0.3-0.2 c-0.1,0-0.3-0.1-0.6-0.1h-0.7V68.5z M277,70.6v-3.8h1.3c0.5,0,0.8,0,1,0.1c0.2,0.1,0.4,0.2,0.5,0.4c0.1,0.2,0.2,0.4,0.2,0.6 c0,0.3-0.1,0.5-0.3,0.7c-0.2,0.2-0.5,0.3-0.8,0.3c0.1,0.1,0.2,0.1,0.3,0.2c0.2,0.2,0.3,0.4,0.6,0.8l0.5,0.7h-0.8l-0.3-0.6 c-0.3-0.5-0.5-0.8-0.6-0.9c-0.1-0.1-0.3-0.1-0.5-0.1h-0.4v1.6H277z M278.6,65.7c-0.5,0-1,0.1-1.5,0.4c-0.5,0.3-0.8,0.6-1.1,1.1 c-0.3,0.5-0.4,1-0.4,1.5c0,0.5,0.1,1,0.4,1.5c0.3,0.5,0.6,0.8,1.1,1.1c0.5,0.3,1,0.4,1.5,0.4c0.5,0,1-0.1,1.5-0.4 c0.5-0.3,0.8-0.6,1.1-1.1c0.3-0.5,0.4-1,0.4-1.5c0-0.5-0.1-1-0.4-1.5c-0.3-0.5-0.6-0.8-1.1-1.1C279.6,65.8,279.1,65.7,278.6,65.7z M278.6,65.1c0.6,0,1.2,0.2,1.8,0.5c0.6,0.3,1,0.7,1.3,1.3c0.3,0.6,0.5,1.2,0.5,1.8c0,0.6-0.2,1.2-0.5,1.8c-0.3,0.6-0.8,1-1.3,1.3 c-0.6,0.3-1.2,0.5-1.8,0.5c-0.6,0-1.2-0.2-1.8-0.5c-0.6-0.3-1-0.8-1.3-1.3c-0.3-0.6-0.5-1.2-0.5-1.8c0-0.6,0.2-1.2,0.5-1.8 c0.3-0.6,0.8-1,1.3-1.3C277.4,65.2,278,65.1,278.6,65.1z"/>
</svg>
